{
 "asset": {
  "generator": "Khronos glTF Blender I/O v4.0.43",
  "version": "2.0",
  "extras": {
   "reducido": "tools/reducir_piloto.py desde Low_Poly_Motorcyclist_2_rigged.gltf: 5210 -> 3484 triángulos, 5901 -> 4726 vértices"
  }
 },
 "extensionsUsed": [
  "KHR_materials_specular",
  "KHR_materials_ior"
 ],
 "scene": 0,
 "scenes": [
  {
   "name": "Scene",
   "nodes": [
    25
   ]
  }
 ],
 "nodes": [
  {
   "name": "LeftToeBase",
   "rotation": [
    -0.34430545568466187,
    -0.030817372724413872,
    -0.011308318004012108,
    0.9382836222648621
   ],
   "scale": [
    1,
    1.0000001192092896,
    1.0000001192092896
   ],
   "translation": [
    -7.361173629760742e-06,
    13.35267448425293,
    -4.231929779052734e-06
   ]
  },
  {
   "children": [
    0
   ],
   "name": "LeftFoot",
   "rotation": [
    -0.5218296647071838,
    -0.03179935738444328,
    0.02320278249680996,
    0.8521409630775452
   ],
   "scale": [
    1.0000001192092896,
    1.0000001192092896,
    0.9999999403953552
   ],
   "translation": [
    1.7285346984863281e-06,
    38.75545120239258,
    5.960464477539062e-07
   ]
  },
  {
   "children": [
    1
   ],
   "name": "LeftLeg",
   "rotation": [
    0.17364920675754547,
    0.015759611502289772,
    -0.0036642528139054775,
    0.9846746325492859
   ],
   "scale": [
    1,
    1,
    0.9999999403953552
   ],
   "translation": [
    2.8759241104125977e-06,
    33.18840789794922,
    3.5762786865234375e-07
   ]
  },
  {
   "children": [
    2
   ],
   "name": "LeftUpLeg",
   "rotation": [
    -0.2885991036891937,
    -0.5474112629890442,
    0.5402065515518188,
    0.5702879428863525
   ],
   "scale": [
    1,
    0.9999999403953552,
    0.9999998807907104
   ],
   "translation": [
    -3.432258129119873,
    10.051894187927246,
    -6.237020492553711
   ]
  },
  {
   "name": "RightToeBase",
   "rotation": [
    -0.3308108448982239,
    0.029111068695783615,
    0.010210223495960236,
    0.943192720413208
   ],
   "scale": [
    1,
    1.0000001192092896,
    1
   ],
   "translation": [
    1.3560056686401367e-06,
    12.886786460876465,
    -6.794929504394531e-06
   ]
  },
  {
   "children": [
    4
   ],
   "name": "RightFoot",
   "rotation": [
    -0.536304235458374,
    0.035320721566677094,
    -0.017074348405003548,
    0.8431125283241272
   ],
   "scale": [
    0.9999999403953552,
    0.9999999403953552,
    1
   ],
   "translation": [
    -3.039836883544922e-06,
    38.161563873291016,
    8.344650268554688e-07
   ]
  },
  {
   "children": [
    5
   ],
   "name": "RightLeg",
   "rotation": [
    0.17739087343215942,
    -0.024149971082806587,
    -0.004073347430676222,
    0.9838356971740723
   ],
   "scale": [
    1,
    0.9999999403953552,
    1.0000001192092896
   ],
   "translation": [
    2.9802322387695312e-08,
    34.09124755859375,
    8.702278137207031e-06
   ]
  },
  {
   "children": [
    6
   ],
   "name": "RightUpLeg",
   "rotation": [
    -0.4134305715560913,
    -0.4412480890750885,
    0.5706543922424316,
    0.5556339025497437
   ],
   "scale": [
    0.9999999403953552,
    0.9999999403953552,
    1
   ],
   "translation": [
    -1.2744024991989136,
    -8.591802597045898,
    -9.726805686950684
   ]
  },
  {
   "name": "LeftHand",
   "rotation": [
    0.000524780887644738,
    0.062415022403001785,
    0.1116802990436554,
    0.991782009601593
   ],
   "scale": [
    0.9999998807907104,
    0.9999999403953552,
    1
   ],
   "translation": [
    -7.152557373046875e-06,
    24.6367130279541,
    9.775161743164062e-06
   ]
  },
  {
   "children": [
    8
   ],
   "name": "LeftForeArm",
   "rotation": [
    -0.1439225822687149,
    0.016456525772809982,
    0.13554877042770386,
    0.9801234602928162
   ],
   "translation": [
    -4.0531158447265625e-06,
    27.19390296936035,
    2.384185791015625e-07
   ]
  },
  {
   "children": [
    9
   ],
   "name": "LeftArm",
   "rotation": [
    0.39408180117607117,
    0.40032947063446045,
    0.17943818867206573,
    0.807612419128418
   ],
   "scale": [
    1,
    1.0000001192092896,
    1
   ],
   "translation": [
    1.533780960016884e-07,
    12.718335151672363,
    -1.53696455527097e-05
   ]
  },
  {
   "children": [
    10
   ],
   "name": "LeftShoulder",
   "rotation": [
    0.5010462403297424,
    0.5089898109436035,
    -0.5026492476463318,
    0.4870584011077881
   ],
   "scale": [
    0.9999998807907104,
    0.9999997019767761,
    0.9999999403953552
   ],
   "translation": [
    3.218822479248047,
    5.224879741668701,
    -0.1188921108841896
   ]
  },
  {
   "name": "RightHand",
   "rotation": [
    0.01848028600215912,
    -0.08521915972232819,
    -0.14082124829292297,
    0.9861873984336853
   ],
   "scale": [
    1,
    0.9999999403953552,
    1
   ],
   "translation": [
    -5.9604644775390625e-06,
    25.51559829711914,
    1.33514404296875e-05
   ]
  },
  {
   "children": [
    12
   ],
   "name": "RightForeArm",
   "rotation": [
    -0.14226146042346954,
    -0.012725298292934895,
    -0.13355222344398499,
    0.9806954264640808
   ],
   "scale": [
    0.9999997615814209,
    0.9999998807907104,
    1
   ],
   "translation": [
    -2.86102294921875e-06,
    26.662391662597656,
    1.049041748046875e-05
   ]
  },
  {
   "children": [
    13
   ],
   "name": "RightArm",
   "rotation": [
    0.3891735076904297,
    -0.3951561748981476,
    -0.17294412851333618,
    0.8139324188232422
   ],
   "scale": [
    0.9999999403953552,
    0.9999999403953552,
    0.9999997615814209
   ],
   "translation": [
    -4.891808202955872e-08,
    12.937372207641602,
    1.5384597645606846e-05
   ]
  },
  {
   "children": [
    14
   ],
   "name": "RightShoulder",
   "rotation": [
    0.5011668801307678,
    -0.5088710784912109,
    0.49478650093078613,
    0.49504369497299194
   ],
   "scale": [
    1.0000001192092896,
    1.000000238418579,
    1
   ],
   "translation": [
    -3.1953978538513184,
    5.087141513824463,
    -0.06942439079284668
   ]
  },
  {
   "name": "head_end",
   "rotation": [
    -0.235764279961586,
    4.16279455350832e-09,
    0.0025543912779539824,
    0.9718069434165955
   ],
   "scale": [
    0.9999999403953552,
    0.9999998807907104,
    1
   ],
   "translation": [
    -0.13692383468151093,
    24.51291847229004,
    -12.63776683807373
   ]
  },
  {
   "name": "headfront",
   "rotation": [
    0.43552204966545105,
    4.009122989145908e-08,
    -0.0047186510637402534,
    0.9001656770706177
   ],
   "translation": [
    0.13692384958267212,
    10.00270938873291,
    12.637731552124023
   ]
  },
  {
   "children": [
    16,
    17
   ],
   "name": "Head",
   "rotation": [
    0.32809925079345703,
    -9.35412390390411e-05,
    -0.0033614560961723328,
    0.9446372985839844
   ],
   "scale": [
    1.0000001192092896,
    1.0000001192092896,
    1.0000001192092896
   ],
   "translation": [
    -2.595322712295456e-08,
    6.800380706787109,
    -1.7316785942966817e-06
   ]
  },
  {
   "children": [
    18
   ],
   "name": "neck",
   "rotation": [
    0.010603887028992176,
    -0.0014141103019937873,
    0.0013037712778896093,
    0.9999419450759888
   ],
   "scale": [
    1,
    1.0000001192092896,
    1
   ],
   "translation": [
    -0.023424427956342697,
    8.879693031311035,
    0.1883164942264557
   ]
  },
  {
   "children": [
    11,
    15,
    19
   ],
   "name": "Spine",
   "rotation": [
    -0.010581445880234241,
    -0.0016234833747148514,
    0.0016726916655898094,
    0.9999412894248962
   ],
   "scale": [
    1.0000001192092896,
    1.0000001192092896,
    1.0000001192092896
   ],
   "translation": [
    5.587935447692871e-09,
    12.196611404418945,
    1.9586877897381783e-07
   ]
  },
  {
   "children": [
    20
   ],
   "name": "Spine01",
   "rotation": [
    -4.331468517193571e-09,
    -5.014271664549597e-09,
    5.478113607182422e-08,
    1
   ],
   "scale": [
    1.0000001192092896,
    1,
    1
   ],
   "translation": [
    -1.7546117305755615e-06,
    12.196650505065918,
    -1.9569415599107742e-07
   ]
  },
  {
   "children": [
    21
   ],
   "name": "Spine02",
   "rotation": [
    0.5862262845039368,
    0.5818893909454346,
    0.4649674594402313,
    0.31866705417633057
   ],
   "scale": [
    1,
    1.0000001192092896,
    0.9999999403953552
   ],
   "translation": [
    4.706668376922607,
    -1.4600865840911865,
    11.156795501708984
   ]
  },
  {
   "children": [
    3,
    7,
    22
   ],
   "name": "Hips",
   "rotation": [
    -0.5837193727493286,
    -0.5837192535400391,
    -0.465829074382782,
    0.3186641037464142
   ],
   "scale": [
    0.9999999403953552,
    0.9999999403953552,
    0.9999999403953552
   ],
   "translation": [
    0.33026576042175293,
    90.71184539794922,
    -2.3086118698120117
   ]
  },
  {
   "mesh": 0,
   "name": "char1",
   "skin": 0
  },
  {
   "children": [
    24,
    23
   ],
   "name": "Armature",
   "scale": [
    0.009999999776482582,
    0.009999999776482582,
    0.009999999776482582
   ]
  }
 ],
 "materials": [
  {
   "doubleSided": true,
   "emissiveFactor": [
    1,
    1,
    1
   ],
   "emissiveTexture": {
    "index": 0
   },
   "extensions": {
    "KHR_materials_specular": {
     "specularColorFactor": [
      2,
      2,
      2
     ]
    },
    "KHR_materials_ior": {
     "ior": 1.4500000476837158
    }
   },
   "name": "Material_1",
   "pbrMetallicRoughness": {
    "baseColorTexture": {
     "index": 1
    }
   }
  }
 ],
 "meshes": [
  {
   "name": "char1",
   "primitives": [
    {
     "attributes": {
      "POSITION": 0,
      "NORMAL": 1,
      "TEXCOORD_0": 2,
      "JOINTS_0": 3,
      "WEIGHTS_0": 4
     },
     "indices": 5,
     "material": 0
    }
   ]
  }
 ],
 "textures": [
  {
   "sampler": 0,
   "source": 0
  },
  {
   "sampler": 0,
   "source": 0
  }
 ],
 "images": [
  {
   "mimeType": "image/png",
   "name": "texture_0",
   "uri": "Low_Poly_Motorcyclist_2_lowpoly_deps/Low_Poly_Motorcyclist_2_lowpoly.image-0.png"
  }
 ],
 "skins": [
  {
   "inverseBindMatrices": 6,
   "joints": [
    23,
    3,
    2,
    1,
    0,
    7,
    6,
    5,
    4,
    22,
    21,
    20,
    11,
    10,
    9,
    8,
    15,
    14,
    13,
    12,
    19,
    18,
    16,
    17
   ],
   "name": "Armature"
  }
 ],
 "accessors": [
  {
   "bufferView": 0,
   "componentType": 5126,
   "count": 4726,
   "max": [
    0.5563738346099854,
    1.699493646621704,
    0.17544886469841003
   ],
   "min": [
    -0.5563737154006958,
    -1.2536113480621225e-08,
    -0.17544884979724884
   ],
   "type": "VEC3"
  },
  {
   "bufferView": 1,
   "componentType": 5126,
   "count": 4726,
   "type": "VEC3"
  },
  {
   "bufferView": 2,
   "componentType": 5126,
   "count": 4726,
   "type": "VEC2"
  },
  {
   "bufferView": 3,
   "componentType": 5121,
   "count": 4726,
   "type": "VEC4"
  },
  {
   "bufferView": 4,
   "componentType": 5126,
   "count": 4726,
   "type": "VEC4"
  },
  {
   "bufferView": 5,
   "componentType": 5123,
   "count": 10452,
   "type": "SCALAR"
  },
  {
   "bufferView": 6,
   "componentType": 5126,
   "count": 24,
   "type": "MAT4"
  },
  {
   "bufferView": 7,
   "componentType": 5126,
   "count": 1,
   "max": [
    0.3
   ],
   "min": [
    0.3
   ],
   "type": "SCALAR"
  },
  {
   "bufferView": 8,
   "componentType": 5126,
   "count": 1,
   "type": "VEC3"
  },
  {
   "bufferView": 9,
   "componentType": 5126,
   "count": 1,
   "type": "VEC4"
  },
  {
   "bufferView": 10,
   "componentType": 5126,
   "count": 1,
   "type": "VEC3"
  },
  {
   "bufferView": 11,
   "componentType": 5126,
   "count": 1,
   "type": "VEC3"
  },
  {
   "bufferView": 12,
   "componentType": 5126,
   "count": 1,
   "type": "VEC4"
  },
  {
   "bufferView": 13,
   "componentType": 5126,
   "count": 1,
   "type": "VEC3"
  },
  {
   "bufferView": 14,
   "componentType": 5126,
   "count": 1,
   "type": "VEC3"
  },
  {
   "bufferView": 15,
   "componentType": 5126,
   "count": 1,
   "type": "VEC4"
  },
  {
   "bufferView": 16,
   "componentType": 5126,
   "count": 1,
   "type": "VEC3"
  },
  {
   "bufferView": 17,
   "componentType": 5126,
   "count": 1,
   "type": "VEC3"
  },
  {
   "bufferView": 18,
   "componentType": 5126,
   "count": 1,
   "type": "VEC4"
  },
  {
   "bufferView": 19,
   "componentType": 5126,
   "count": 1,
   "type": "VEC3"
  },
  {
   "bufferView": 20,
   "componentType": 5126,
   "count": 1,
   "type": "VEC3"
  },
  {
   "bufferView": 21,
   "componentType": 5126,
   "count": 1,
   "type": "VEC4"
  },
  {
   "bufferView": 22,
   "componentType": 5126,
   "count": 1,
   "type": "VEC3"
  },
  {
   "bufferView": 23,
   "componentType": 5126,
   "count": 1,
   "type": "VEC3"
  },
  {
   "bufferView": 24,
   "componentType": 5126,
   "count": 1,
   "type": "VEC4"
  },
  {
   "bufferView": 25,
   "componentType": 5126,
   "count": 1,
   "type": "VEC3"
  },
  {
   "bufferView": 26,
   "componentType": 5126,
   "count": 1,
   "type": "VEC3"
  },
  {
   "bufferView": 27,
   "componentType": 5126,
   "count": 1,
   "type": "VEC4"
  },
  {
   "bufferView": 28,
   "componentType": 5126,
   "count": 1,
   "type": "VEC3"
  },
  {
   "bufferView": 29,
   "componentType": 5126,
   "count": 1,
   "type": "VEC3"
  },
  {
   "bufferView": 30,
   "componentType": 5126,
   "count": 1,
   "type": "VEC4"
  },
  {
   "bufferView": 31,
   "componentType": 5126,
   "count": 1,
   "type": "VEC3"
  },
  {
   "bufferView": 32,
   "componentType": 5126,
   "count": 1,
   "type": "VEC3"
  },
  {
   "bufferView": 33,
   "componentType": 5126,
   "count": 1,
   "type": "VEC4"
  },
  {
   "bufferView": 34,
   "componentType": 5126,
   "count": 1,
   "type": "VEC3"
  },
  {
   "bufferView": 35,
   "componentType": 5126,
   "count": 1,
   "type": "VEC3"
  },
  {
   "bufferView": 36,
   "componentType": 5126,
   "count": 1,
   "type": "VEC4"
  },
  {
   "bufferView": 37,
   "componentType": 5126,
   "count": 1,
   "type": "VEC3"
  },
  {
   "bufferView": 38,
   "componentType": 5126,
   "count": 1,
   "type": "VEC3"
  },
  {
   "bufferView": 39,
   "componentType": 5126,
   "count": 1,
   "type": "VEC4"
  },
  {
   "bufferView": 40,
   "componentType": 5126,
   "count": 1,
   "type": "VEC3"
  },
  {
   "bufferView": 41,
   "componentType": 5126,
   "count": 1,
   "type": "VEC3"
  },
  {
   "bufferView": 42,
   "componentType": 5126,
   "count": 1,
   "type": "VEC4"
  },
  {
   "bufferView": 43,
   "componentType": 5126,
   "count": 1,
   "type": "VEC3"
  },
  {
   "bufferView": 44,
   "componentType": 5126,
   "count": 1,
   "type": "VEC3"
  },
  {
   "bufferView": 45,
   "componentType": 5126,
   "count": 1,
   "type": "VEC4"
  },
  {
   "bufferView": 46,
   "componentType": 5126,
   "count": 1,
   "type": "VEC3"
  },
  {
   "bufferView": 47,
   "componentType": 5126,
   "count": 1,
   "type": "VEC3"
  },
  {
   "bufferView": 48,
   "componentType": 5126,
   "count": 1,
   "type": "VEC4"
  },
  {
   "bufferView": 49,
   "componentType": 5126,
   "count": 1,
   "type": "VEC3"
  },
  {
   "bufferView": 50,
   "componentType": 5126,
   "count": 1,
   "type": "VEC3"
  },
  {
   "bufferView": 51,
   "componentType": 5126,
   "count": 1,
   "type": "VEC4"
  },
  {
   "bufferView": 52,
   "componentType": 5126,
   "count": 1,
   "type": "VEC3"
  },
  {
   "bufferView": 53,
   "componentType": 5126,
   "count": 1,
   "type": "VEC3"
  },
  {
   "bufferView": 54,
   "componentType": 5126,
   "count": 1,
   "type": "VEC4"
  },
  {
   "bufferView": 55,
   "componentType": 5126,
   "count": 1,
   "type": "VEC3"
  },
  {
   "bufferView": 56,
   "componentType": 5126,
   "count": 1,
   "type": "VEC3"
  },
  {
   "bufferView": 57,
   "componentType": 5126,
   "count": 1,
   "type": "VEC4"
  },
  {
   "bufferView": 58,
   "componentType": 5126,
   "count": 1,
   "type": "VEC3"
  },
  {
   "bufferView": 59,
   "componentType": 5126,
   "count": 1,
   "type": "VEC3"
  },
  {
   "bufferView": 60,
   "componentType": 5126,
   "count": 1,
   "type": "VEC4"
  },
  {
   "bufferView": 61,
   "componentType": 5126,
   "count": 1,
   "type": "VEC3"
  },
  {
   "bufferView": 62,
   "componentType": 5126,
   "count": 1,
   "type": "VEC3"
  },
  {
   "bufferView": 63,
   "componentType": 5126,
   "count": 1,
   "type": "VEC4"
  },
  {
   "bufferView": 64,
   "componentType": 5126,
   "count": 1,
   "type": "VEC3"
  },
  {
   "bufferView": 65,
   "componentType": 5126,
   "count": 1,
   "type": "VEC3"
  },
  {
   "bufferView": 66,
   "componentType": 5126,
   "count": 1,
   "type": "VEC4"
  },
  {
   "bufferView": 67,
   "componentType": 5126,
   "count": 1,
   "type": "VEC3"
  },
  {
   "bufferView": 68,
   "componentType": 5126,
   "count": 1,
   "type": "VEC3"
  },
  {
   "bufferView": 69,
   "componentType": 5126,
   "count": 1,
   "type": "VEC4"
  },
  {
   "bufferView": 70,
   "componentType": 5126,
   "count": 1,
   "type": "VEC3"
  },
  {
   "bufferView": 71,
   "componentType": 5126,
   "count": 1,
   "type": "VEC3"
  },
  {
   "bufferView": 72,
   "componentType": 5126,
   "count": 1,
   "type": "VEC4"
  },
  {
   "bufferView": 73,
   "componentType": 5126,
   "count": 1,
   "type": "VEC3"
  },
  {
   "bufferView": 74,
   "componentType": 5126,
   "count": 1,
   "type": "VEC3"
  },
  {
   "bufferView": 75,
   "componentType": 5126,
   "count": 1,
   "type": "VEC4"
  },
  {
   "bufferView": 76,
   "componentType": 5126,
   "count": 1,
   "type": "VEC3"
  },
  {
   "bufferView": 77,
   "componentType": 5126,
   "count": 1,
   "type": "VEC3"
  },
  {
   "bufferView": 78,
   "componentType": 5126,
   "count": 1,
   "type": "VEC4"
  },
  {
   "bufferView": 79,
   "componentType": 5126,
   "count": 1,
   "type": "VEC3"
  },
  {
   "bufferView": 80,
   "componentType": 5126,
   "count": 32,
   "max": [
    1.0666666666666667
   ],
   "min": [
    0.03333333333333333
   ],
   "type": "SCALAR"
  },
  {
   "bufferView": 81,
   "componentType": 5126,
   "count": 32,
   "type": "VEC3"
  },
  {
   "bufferView": 82,
   "componentType": 5126,
   "count": 32,
   "type": "VEC4"
  },
  {
   "bufferView": 83,
   "componentType": 5126,
   "count": 2,
   "max": [
    1.0666666666666667
   ],
   "min": [
    0.03333333333333333
   ],
   "type": "SCALAR"
  },
  {
   "bufferView": 84,
   "componentType": 5126,
   "count": 2,
   "type": "VEC3"
  },
  {
   "bufferView": 85,
   "componentType": 5126,
   "count": 2,
   "type": "VEC3"
  },
  {
   "bufferView": 86,
   "componentType": 5126,
   "count": 32,
   "type": "VEC4"
  },
  {
   "bufferView": 87,
   "componentType": 5126,
   "count": 2,
   "type": "VEC3"
  },
  {
   "bufferView": 88,
   "componentType": 5126,
   "count": 2,
   "type": "VEC3"
  },
  {
   "bufferView": 89,
   "componentType": 5126,
   "count": 32,
   "type": "VEC4"
  },
  {
   "bufferView": 90,
   "componentType": 5126,
   "count": 2,
   "type": "VEC3"
  },
  {
   "bufferView": 91,
   "componentType": 5126,
   "count": 2,
   "type": "VEC3"
  },
  {
   "bufferView": 92,
   "componentType": 5126,
   "count": 32,
   "type": "VEC4"
  },
  {
   "bufferView": 93,
   "componentType": 5126,
   "count": 2,
   "type": "VEC3"
  },
  {
   "bufferView": 94,
   "componentType": 5126,
   "count": 2,
   "type": "VEC3"
  },
  {
   "bufferView": 95,
   "componentType": 5126,
   "count": 32,
   "type": "VEC4"
  },
  {
   "bufferView": 96,
   "componentType": 5126,
   "count": 2,
   "type": "VEC3"
  },
  {
   "bufferView": 97,
   "componentType": 5126,
   "count": 2,
   "type": "VEC3"
  },
  {
   "bufferView": 98,
   "componentType": 5126,
   "count": 32,
   "type": "VEC4"
  },
  {
   "bufferView": 99,
   "componentType": 5126,
   "count": 2,
   "type": "VEC3"
  },
  {
   "bufferView": 100,
   "componentType": 5126,
   "count": 2,
   "type": "VEC3"
  },
  {
   "bufferView": 101,
   "componentType": 5126,
   "count": 32,
   "type": "VEC4"
  },
  {
   "bufferView": 102,
   "componentType": 5126,
   "count": 2,
   "type": "VEC3"
  },
  {
   "bufferView": 103,
   "componentType": 5126,
   "count": 2,
   "type": "VEC3"
  },
  {
   "bufferView": 104,
   "componentType": 5126,
   "count": 32,
   "type": "VEC4"
  },
  {
   "bufferView": 105,
   "componentType": 5126,
   "count": 2,
   "type": "VEC3"
  },
  {
   "bufferView": 106,
   "componentType": 5126,
   "count": 2,
   "type": "VEC3"
  },
  {
   "bufferView": 107,
   "componentType": 5126,
   "count": 32,
   "type": "VEC4"
  },
  {
   "bufferView": 108,
   "componentType": 5126,
   "count": 2,
   "type": "VEC3"
  },
  {
   "bufferView": 109,
   "componentType": 5126,
   "count": 2,
   "type": "VEC3"
  },
  {
   "bufferView": 110,
   "componentType": 5126,
   "count": 32,
   "type": "VEC4"
  },
  {
   "bufferView": 111,
   "componentType": 5126,
   "count": 2,
   "type": "VEC3"
  },
  {
   "bufferView": 112,
   "componentType": 5126,
   "count": 2,
   "type": "VEC3"
  },
  {
   "bufferView": 113,
   "componentType": 5126,
   "count": 32,
   "type": "VEC4"
  },
  {
   "bufferView": 114,
   "componentType": 5126,
   "count": 2,
   "type": "VEC3"
  },
  {
   "bufferView": 115,
   "componentType": 5126,
   "count": 2,
   "type": "VEC3"
  },
  {
   "bufferView": 116,
   "componentType": 5126,
   "count": 32,
   "type": "VEC4"
  },
  {
   "bufferView": 117,
   "componentType": 5126,
   "count": 2,
   "type": "VEC3"
  },
  {
   "bufferView": 118,
   "componentType": 5126,
   "count": 2,
   "type": "VEC3"
  },
  {
   "bufferView": 119,
   "componentType": 5126,
   "count": 32,
   "type": "VEC4"
  },
  {
   "bufferView": 120,
   "componentType": 5126,
   "count": 2,
   "type": "VEC3"
  },
  {
   "bufferView": 121,
   "componentType": 5126,
   "count": 2,
   "type": "VEC3"
  },
  {
   "bufferView": 122,
   "componentType": 5126,
   "count": 32,
   "type": "VEC4"
  },
  {
   "bufferView": 123,
   "componentType": 5126,
   "count": 2,
   "type": "VEC3"
  },
  {
   "bufferView": 124,
   "componentType": 5126,
   "count": 2,
   "type": "VEC3"
  },
  {
   "bufferView": 125,
   "componentType": 5126,
   "count": 32,
   "type": "VEC4"
  },
  {
   "bufferView": 126,
   "componentType": 5126,
   "count": 2,
   "type": "VEC3"
  },
  {
   "bufferView": 127,
   "componentType": 5126,
   "count": 2,
   "type": "VEC3"
  },
  {
   "bufferView": 128,
   "componentType": 5126,
   "count": 32,
   "type": "VEC4"
  },
  {
   "bufferView": 129,
   "componentType": 5126,
   "count": 2,
   "type": "VEC3"
  },
  {
   "bufferView": 130,
   "componentType": 5126,
   "count": 2,
   "type": "VEC3"
  },
  {
   "bufferView": 131,
   "componentType": 5126,
   "count": 32,
   "type": "VEC4"
  },
  {
   "bufferView": 132,
   "componentType": 5126,
   "count": 2,
   "type": "VEC3"
  },
  {
   "bufferView": 133,
   "componentType": 5126,
   "count": 2,
   "type": "VEC3"
  },
  {
   "bufferView": 134,
   "componentType": 5126,
   "count": 32,
   "type": "VEC4"
  },
  {
   "bufferView": 135,
   "componentType": 5126,
   "count": 2,
   "type": "VEC3"
  },
  {
   "bufferView": 136,
   "componentType": 5126,
   "count": 2,
   "type": "VEC3"
  },
  {
   "bufferView": 137,
   "componentType": 5126,
   "count": 32,
   "type": "VEC4"
  },
  {
   "bufferView": 138,
   "componentType": 5126,
   "count": 2,
   "type": "VEC3"
  },
  {
   "bufferView": 139,
   "componentType": 5126,
   "count": 2,
   "type": "VEC3"
  },
  {
   "bufferView": 140,
   "componentType": 5126,
   "count": 32,
   "type": "VEC4"
  },
  {
   "bufferView": 141,
   "componentType": 5126,
   "count": 2,
   "type": "VEC3"
  },
  {
   "bufferView": 142,
   "componentType": 5126,
   "count": 2,
   "type": "VEC3"
  },
  {
   "bufferView": 143,
   "componentType": 5126,
   "count": 32,
   "type": "VEC4"
  },
  {
   "bufferView": 144,
   "componentType": 5126,
   "count": 2,
   "type": "VEC3"
  },
  {
   "bufferView": 145,
   "componentType": 5126,
   "count": 2,
   "type": "VEC3"
  },
  {
   "bufferView": 146,
   "componentType": 5126,
   "count": 32,
   "type": "VEC4"
  },
  {
   "bufferView": 147,
   "componentType": 5126,
   "count": 2,
   "type": "VEC3"
  },
  {
   "bufferView": 148,
   "componentType": 5126,
   "count": 2,
   "type": "VEC3"
  },
  {
   "bufferView": 149,
   "componentType": 5126,
   "count": 32,
   "type": "VEC4"
  },
  {
   "bufferView": 150,
   "componentType": 5126,
   "count": 2,
   "type": "VEC3"
  },
  {
   "bufferView": 151,
   "componentType": 5126,
   "count": 2,
   "type": "VEC3"
  },
  {
   "bufferView": 152,
   "componentType": 5126,
   "count": 2,
   "type": "VEC4"
  },
  {
   "bufferView": 153,
   "componentType": 5126,
   "count": 2,
   "type": "VEC3"
  },
  {
   "bufferView": 154,
   "componentType": 5126,
   "count": 20,
   "max": [
    0.6666666666666666
   ],
   "min": [
    0.03333333333333333
   ],
   "type": "SCALAR"
  },
  {
   "bufferView": 155,
   "componentType": 5126,
   "count": 20,
   "type": "VEC3"
  },
  {
   "bufferView": 156,
   "componentType": 5126,
   "count": 20,
   "type": "VEC4"
  },
  {
   "bufferView": 157,
   "componentType": 5126,
   "count": 2,
   "max": [
    0.6666666666666666
   ],
   "min": [
    0.03333333333333333
   ],
   "type": "SCALAR"
  },
  {
   "bufferView": 158,
   "componentType": 5126,
   "count": 2,
   "type": "VEC3"
  },
  {
   "bufferView": 159,
   "componentType": 5126,
   "count": 2,
   "type": "VEC3"
  },
  {
   "bufferView": 160,
   "componentType": 5126,
   "count": 20,
   "type": "VEC4"
  },
  {
   "bufferView": 161,
   "componentType": 5126,
   "count": 2,
   "type": "VEC3"
  },
  {
   "bufferView": 162,
   "componentType": 5126,
   "count": 2,
   "type": "VEC3"
  },
  {
   "bufferView": 163,
   "componentType": 5126,
   "count": 20,
   "type": "VEC4"
  },
  {
   "bufferView": 164,
   "componentType": 5126,
   "count": 2,
   "type": "VEC3"
  },
  {
   "bufferView": 165,
   "componentType": 5126,
   "count": 2,
   "type": "VEC3"
  },
  {
   "bufferView": 166,
   "componentType": 5126,
   "count": 20,
   "type": "VEC4"
  },
  {
   "bufferView": 167,
   "componentType": 5126,
   "count": 2,
   "type": "VEC3"
  },
  {
   "bufferView": 168,
   "componentType": 5126,
   "count": 2,
   "type": "VEC3"
  },
  {
   "bufferView": 169,
   "componentType": 5126,
   "count": 20,
   "type": "VEC4"
  },
  {
   "bufferView": 170,
   "componentType": 5126,
   "count": 2,
   "type": "VEC3"
  },
  {
   "bufferView": 171,
   "componentType": 5126,
   "count": 2,
   "type": "VEC3"
  },
  {
   "bufferView": 172,
   "componentType": 5126,
   "count": 20,
   "type": "VEC4"
  },
  {
   "bufferView": 173,
   "componentType": 5126,
   "count": 2,
   "type": "VEC3"
  },
  {
   "bufferView": 174,
   "componentType": 5126,
   "count": 2,
   "type": "VEC3"
  },
  {
   "bufferView": 175,
   "componentType": 5126,
   "count": 20,
   "type": "VEC4"
  },
  {
   "bufferView": 176,
   "componentType": 5126,
   "count": 2,
   "type": "VEC3"
  },
  {
   "bufferView": 177,
   "componentType": 5126,
   "count": 2,
   "type": "VEC3"
  },
  {
   "bufferView": 178,
   "componentType": 5126,
   "count": 20,
   "type": "VEC4"
  },
  {
   "bufferView": 179,
   "componentType": 5126,
   "count": 2,
   "type": "VEC3"
  },
  {
   "bufferView": 180,
   "componentType": 5126,
   "count": 2,
   "type": "VEC3"
  },
  {
   "bufferView": 181,
   "componentType": 5126,
   "count": 20,
   "type": "VEC4"
  },
  {
   "bufferView": 182,
   "componentType": 5126,
   "count": 2,
   "type": "VEC3"
  },
  {
   "bufferView": 183,
   "componentType": 5126,
   "count": 2,
   "type": "VEC3"
  },
  {
   "bufferView": 184,
   "componentType": 5126,
   "count": 20,
   "type": "VEC4"
  },
  {
   "bufferView": 185,
   "componentType": 5126,
   "count": 2,
   "type": "VEC3"
  },
  {
   "bufferView": 186,
   "componentType": 5126,
   "count": 2,
   "type": "VEC3"
  },
  {
   "bufferView": 187,
   "componentType": 5126,
   "count": 20,
   "type": "VEC4"
  },
  {
   "bufferView": 188,
   "componentType": 5126,
   "count": 2,
   "type": "VEC3"
  },
  {
   "bufferView": 189,
   "componentType": 5126,
   "count": 2,
   "type": "VEC3"
  },
  {
   "bufferView": 190,
   "componentType": 5126,
   "count": 20,
   "type": "VEC4"
  },
  {
   "bufferView": 191,
   "componentType": 5126,
   "count": 2,
   "type": "VEC3"
  },
  {
   "bufferView": 192,
   "componentType": 5126,
   "count": 2,
   "type": "VEC3"
  },
  {
   "bufferView": 193,
   "componentType": 5126,
   "count": 20,
   "type": "VEC4"
  },
  {
   "bufferView": 194,
   "componentType": 5126,
   "count": 2,
   "type": "VEC3"
  },
  {
   "bufferView": 195,
   "componentType": 5126,
   "count": 2,
   "type": "VEC3"
  },
  {
   "bufferView": 196,
   "componentType": 5126,
   "count": 20,
   "type": "VEC4"
  },
  {
   "bufferView": 197,
   "componentType": 5126,
   "count": 2,
   "type": "VEC3"
  },
  {
   "bufferView": 198,
   "componentType": 5126,
   "count": 2,
   "type": "VEC3"
  },
  {
   "bufferView": 199,
   "componentType": 5126,
   "count": 20,
   "type": "VEC4"
  },
  {
   "bufferView": 200,
   "componentType": 5126,
   "count": 2,
   "type": "VEC3"
  },
  {
   "bufferView": 201,
   "componentType": 5126,
   "count": 2,
   "type": "VEC3"
  },
  {
   "bufferView": 202,
   "componentType": 5126,
   "count": 20,
   "type": "VEC4"
  },
  {
   "bufferView": 203,
   "componentType": 5126,
   "count": 2,
   "type": "VEC3"
  },
  {
   "bufferView": 204,
   "componentType": 5126,
   "count": 2,
   "type": "VEC3"
  },
  {
   "bufferView": 205,
   "componentType": 5126,
   "count": 20,
   "type": "VEC4"
  },
  {
   "bufferView": 206,
   "componentType": 5126,
   "count": 2,
   "type": "VEC3"
  },
  {
   "bufferView": 207,
   "componentType": 5126,
   "count": 2,
   "type": "VEC3"
  },
  {
   "bufferView": 208,
   "componentType": 5126,
   "count": 20,
   "type": "VEC4"
  },
  {
   "bufferView": 209,
   "componentType": 5126,
   "count": 2,
   "type": "VEC3"
  },
  {
   "bufferView": 210,
   "componentType": 5126,
   "count": 2,
   "type": "VEC3"
  },
  {
   "bufferView": 211,
   "componentType": 5126,
   "count": 20,
   "type": "VEC4"
  },
  {
   "bufferView": 212,
   "componentType": 5126,
   "count": 2,
   "type": "VEC3"
  },
  {
   "bufferView": 213,
   "componentType": 5126,
   "count": 2,
   "type": "VEC3"
  },
  {
   "bufferView": 214,
   "componentType": 5126,
   "count": 20,
   "type": "VEC4"
  },
  {
   "bufferView": 215,
   "componentType": 5126,
   "count": 2,
   "type": "VEC3"
  },
  {
   "bufferView": 216,
   "componentType": 5126,
   "count": 2,
   "type": "VEC3"
  },
  {
   "bufferView": 217,
   "componentType": 5126,
   "count": 20,
   "type": "VEC4"
  },
  {
   "bufferView": 218,
   "componentType": 5126,
   "count": 2,
   "type": "VEC3"
  },
  {
   "bufferView": 219,
   "componentType": 5126,
   "count": 2,
   "type": "VEC3"
  },
  {
   "bufferView": 220,
   "componentType": 5126,
   "count": 20,
   "type": "VEC4"
  },
  {
   "bufferView": 221,
   "componentType": 5126,
   "count": 2,
   "type": "VEC3"
  },
  {
   "bufferView": 222,
   "componentType": 5126,
   "count": 2,
   "type": "VEC3"
  },
  {
   "bufferView": 223,
   "componentType": 5126,
   "count": 20,
   "type": "VEC4"
  },
  {
   "bufferView": 224,
   "componentType": 5126,
   "count": 2,
   "type": "VEC3"
  },
  {
   "bufferView": 225,
   "componentType": 5126,
   "count": 2,
   "type": "VEC3"
  },
  {
   "bufferView": 226,
   "componentType": 5126,
   "count": 2,
   "type": "VEC4"
  },
  {
   "bufferView": 227,
   "componentType": 5126,
   "count": 2,
   "type": "VEC3"
  }
 ],
 "bufferViews": [
  {
   "buffer": 0,
   "target": 34962,
   "byteOffset": 0,
   "byteLength": 56712
  },
  {
   "buffer": 0,
   "target": 34962,
   "byteOffset": 56712,
   "byteLength": 56712
  },
  {
   "buffer": 0,
   "target": 34962,
   "byteOffset": 113424,
   "byteLength": 37808
  },
  {
   "buffer": 0,
   "target": 34962,
   "byteOffset": 151232,
   "byteLength": 18904
  },
  {
   "buffer": 0,
   "target": 34962,
   "byteOffset": 170136,
   "byteLength": 75616
  },
  {
   "buffer": 0,
   "target": 34963,
   "byteOffset": 245752,
   "byteLength": 20904
  },
  {
   "buffer": 0,
   "byteOffset": 266656,
   "byteLength": 1536
  },
  {
   "buffer": 0,
   "byteOffset": 268192,
   "byteLength": 4
  },
  {
   "buffer": 0,
   "byteOffset": 268196,
   "byteLength": 12
  },
  {
   "buffer": 0,
   "byteOffset": 268208,
   "byteLength": 16
  },
  {
   "buffer": 0,
   "byteOffset": 268224,
   "byteLength": 12
  },
  {
   "buffer": 0,
   "byteOffset": 268236,
   "byteLength": 12
  },
  {
   "buffer": 0,
   "byteOffset": 268248,
   "byteLength": 16
  },
  {
   "buffer": 0,
   "byteOffset": 268264,
   "byteLength": 12
  },
  {
   "buffer": 0,
   "byteOffset": 268276,
   "byteLength": 12
  },
  {
   "buffer": 0,
   "byteOffset": 268288,
   "byteLength": 16
  },
  {
   "buffer": 0,
   "byteOffset": 268304,
   "byteLength": 12
  },
  {
   "buffer": 0,
   "byteOffset": 268316,
   "byteLength": 12
  },
  {
   "buffer": 0,
   "byteOffset": 268328,
   "byteLength": 16
  },
  {
   "buffer": 0,
   "byteOffset": 268344,
   "byteLength": 12
  },
  {
   "buffer": 0,
   "byteOffset": 268356,
   "byteLength": 12
  },
  {
   "buffer": 0,
   "byteOffset": 268368,
   "byteLength": 16
  },
  {
   "buffer": 0,
   "byteOffset": 268384,
   "byteLength": 12
  },
  {
   "buffer": 0,
   "byteOffset": 268396,
   "byteLength": 12
  },
  {
   "buffer": 0,
   "byteOffset": 268408,
   "byteLength": 16
  },
  {
   "buffer": 0,
   "byteOffset": 268424,
   "byteLength": 12
  },
  {
   "buffer": 0,
   "byteOffset": 268436,
   "byteLength": 12
  },
  {
   "buffer": 0,
   "byteOffset": 268448,
   "byteLength": 16
  },
  {
   "buffer": 0,
   "byteOffset": 268464,
   "byteLength": 12
  },
  {
   "buffer": 0,
   "byteOffset": 268476,
   "byteLength": 12
  },
  {
   "buffer": 0,
   "byteOffset": 268488,
   "byteLength": 16
  },
  {
   "buffer": 0,
   "byteOffset": 268504,
   "byteLength": 12
  },
  {
   "buffer": 0,
   "byteOffset": 268516,
   "byteLength": 12
  },
  {
   "buffer": 0,
   "byteOffset": 268528,
   "byteLength": 16
  },
  {
   "buffer": 0,
   "byteOffset": 268544,
   "byteLength": 12
  },
  {
   "buffer": 0,
   "byteOffset": 268556,
   "byteLength": 12
  },
  {
   "buffer": 0,
   "byteOffset": 268568,
   "byteLength": 16
  },
  {
   "buffer": 0,
   "byteOffset": 268584,
   "byteLength": 12
  },
  {
   "buffer": 0,
   "byteOffset": 268596,
   "byteLength": 12
  },
  {
   "buffer": 0,
   "byteOffset": 268608,
   "byteLength": 16
  },
  {
   "buffer": 0,
   "byteOffset": 268624,
   "byteLength": 12
  },
  {
   "buffer": 0,
   "byteOffset": 268636,
   "byteLength": 12
  },
  {
   "buffer": 0,
   "byteOffset": 268648,
   "byteLength": 16
  },
  {
   "buffer": 0,
   "byteOffset": 268664,
   "byteLength": 12
  },
  {
   "buffer": 0,
   "byteOffset": 268676,
   "byteLength": 12
  },
  {
   "buffer": 0,
   "byteOffset": 268688,
   "byteLength": 16
  },
  {
   "buffer": 0,
   "byteOffset": 268704,
   "byteLength": 12
  },
  {
   "buffer": 0,
   "byteOffset": 268716,
   "byteLength": 12
  },
  {
   "buffer": 0,
   "byteOffset": 268728,
   "byteLength": 16
  },
  {
   "buffer": 0,
   "byteOffset": 268744,
   "byteLength": 12
  },
  {
   "buffer": 0,
   "byteOffset": 268756,
   "byteLength": 12
  },
  {
   "buffer": 0,
   "byteOffset": 268768,
   "byteLength": 16
  },
  {
   "buffer": 0,
   "byteOffset": 268784,
   "byteLength": 12
  },
  {
   "buffer": 0,
   "byteOffset": 268796,
   "byteLength": 12
  },
  {
   "buffer": 0,
   "byteOffset": 268808,
   "byteLength": 16
  },
  {
   "buffer": 0,
   "byteOffset": 268824,
   "byteLength": 12
  },
  {
   "buffer": 0,
   "byteOffset": 268836,
   "byteLength": 12
  },
  {
   "buffer": 0,
   "byteOffset": 268848,
   "byteLength": 16
  },
  {
   "buffer": 0,
   "byteOffset": 268864,
   "byteLength": 12
  },
  {
   "buffer": 0,
   "byteOffset": 268876,
   "byteLength": 12
  },
  {
   "buffer": 0,
   "byteOffset": 268888,
   "byteLength": 16
  },
  {
   "buffer": 0,
   "byteOffset": 268904,
   "byteLength": 12
  },
  {
   "buffer": 0,
   "byteOffset": 268916,
   "byteLength": 12
  },
  {
   "buffer": 0,
   "byteOffset": 268928,
   "byteLength": 16
  },
  {
   "buffer": 0,
   "byteOffset": 268944,
   "byteLength": 12
  },
  {
   "buffer": 0,
   "byteOffset": 268956,
   "byteLength": 12
  },
  {
   "buffer": 0,
   "byteOffset": 268968,
   "byteLength": 16
  },
  {
   "buffer": 0,
   "byteOffset": 268984,
   "byteLength": 12
  },
  {
   "buffer": 0,
   "byteOffset": 268996,
   "byteLength": 12
  },
  {
   "buffer": 0,
   "byteOffset": 269008,
   "byteLength": 16
  },
  {
   "buffer": 0,
   "byteOffset": 269024,
   "byteLength": 12
  },
  {
   "buffer": 0,
   "byteOffset": 269036,
   "byteLength": 12
  },
  {
   "buffer": 0,
   "byteOffset": 269048,
   "byteLength": 16
  },
  {
   "buffer": 0,
   "byteOffset": 269064,
   "byteLength": 12
  },
  {
   "buffer": 0,
   "byteOffset": 269076,
   "byteLength": 12
  },
  {
   "buffer": 0,
   "byteOffset": 269088,
   "byteLength": 16
  },
  {
   "buffer": 0,
   "byteOffset": 269104,
   "byteLength": 12
  },
  {
   "buffer": 0,
   "byteOffset": 269116,
   "byteLength": 12
  },
  {
   "buffer": 0,
   "byteOffset": 269128,
   "byteLength": 16
  },
  {
   "buffer": 0,
   "byteOffset": 269144,
   "byteLength": 12
  },
  {
   "buffer": 0,
   "byteOffset": 269156,
   "byteLength": 128
  },
  {
   "buffer": 0,
   "byteOffset": 269284,
   "byteLength": 384
  },
  {
   "buffer": 0,
   "byteOffset": 269668,
   "byteLength": 512
  },
  {
   "buffer": 0,
   "byteOffset": 270180,
   "byteLength": 8
  },
  {
   "buffer": 0,
   "byteOffset": 270188,
   "byteLength": 24
  },
  {
   "buffer": 0,
   "byteOffset": 270212,
   "byteLength": 24
  },
  {
   "buffer": 0,
   "byteOffset": 270236,
   "byteLength": 512
  },
  {
   "buffer": 0,
   "byteOffset": 270748,
   "byteLength": 24
  },
  {
   "buffer": 0,
   "byteOffset": 270772,
   "byteLength": 24
  },
  {
   "buffer": 0,
   "byteOffset": 270796,
   "byteLength": 512
  },
  {
   "buffer": 0,
   "byteOffset": 271308,
   "byteLength": 24
  },
  {
   "buffer": 0,
   "byteOffset": 271332,
   "byteLength": 24
  },
  {
   "buffer": 0,
   "byteOffset": 271356,
   "byteLength": 512
  },
  {
   "buffer": 0,
   "byteOffset": 271868,
   "byteLength": 24
  },
  {
   "buffer": 0,
   "byteOffset": 271892,
   "byteLength": 24
  },
  {
   "buffer": 0,
   "byteOffset": 271916,
   "byteLength": 512
  },
  {
   "buffer": 0,
   "byteOffset": 272428,
   "byteLength": 24
  },
  {
   "buffer": 0,
   "byteOffset": 272452,
   "byteLength": 24
  },
  {
   "buffer": 0,
   "byteOffset": 272476,
   "byteLength": 512
  },
  {
   "buffer": 0,
   "byteOffset": 272988,
   "byteLength": 24
  },
  {
   "buffer": 0,
   "byteOffset": 273012,
   "byteLength": 24
  },
  {
   "buffer": 0,
   "byteOffset": 273036,
   "byteLength": 512
  },
  {
   "buffer": 0,
   "byteOffset": 273548,
   "byteLength": 24
  },
  {
   "buffer": 0,
   "byteOffset": 273572,
   "byteLength": 24
  },
  {
   "buffer": 0,
   "byteOffset": 273596,
   "byteLength": 512
  },
  {
   "buffer": 0,
   "byteOffset": 274108,
   "byteLength": 24
  },
  {
   "buffer": 0,
   "byteOffset": 274132,
   "byteLength": 24
  },
  {
   "buffer": 0,
   "byteOffset": 274156,
   "byteLength": 512
  },
  {
   "buffer": 0,
   "byteOffset": 274668,
   "byteLength": 24
  },
  {
   "buffer": 0,
   "byteOffset": 274692,
   "byteLength": 24
  },
  {
   "buffer": 0,
   "byteOffset": 274716,
   "byteLength": 512
  },
  {
   "buffer": 0,
   "byteOffset": 275228,
   "byteLength": 24
  },
  {
   "buffer": 0,
   "byteOffset": 275252,
   "byteLength": 24
  },
  {
   "buffer": 0,
   "byteOffset": 275276,
   "byteLength": 512
  },
  {
   "buffer": 0,
   "byteOffset": 275788,
   "byteLength": 24
  },
  {
   "buffer": 0,
   "byteOffset": 275812,
   "byteLength": 24
  },
  {
   "buffer": 0,
   "byteOffset": 275836,
   "byteLength": 512
  },
  {
   "buffer": 0,
   "byteOffset": 276348,
   "byteLength": 24
  },
  {
   "buffer": 0,
   "byteOffset": 276372,
   "byteLength": 24
  },
  {
   "buffer": 0,
   "byteOffset": 276396,
   "byteLength": 512
  },
  {
   "buffer": 0,
   "byteOffset": 276908,
   "byteLength": 24
  },
  {
   "buffer": 0,
   "byteOffset": 276932,
   "byteLength": 24
  },
  {
   "buffer": 0,
   "byteOffset": 276956,
   "byteLength": 512
  },
  {
   "buffer": 0,
   "byteOffset": 277468,
   "byteLength": 24
  },
  {
   "buffer": 0,
   "byteOffset": 277492,
   "byteLength": 24
  },
  {
   "buffer": 0,
   "byteOffset": 277516,
   "byteLength": 512
  },
  {
   "buffer": 0,
   "byteOffset": 278028,
   "byteLength": 24
  },
  {
   "buffer": 0,
   "byteOffset": 278052,
   "byteLength": 24
  },
  {
   "buffer": 0,
   "byteOffset": 278076,
   "byteLength": 512
  },
  {
   "buffer": 0,
   "byteOffset": 278588,
   "byteLength": 24
  },
  {
   "buffer": 0,
   "byteOffset": 278612,
   "byteLength": 24
  },
  {
   "buffer": 0,
   "byteOffset": 278636,
   "byteLength": 512
  },
  {
   "buffer": 0,
   "byteOffset": 279148,
   "byteLength": 24
  },
  {
   "buffer": 0,
   "byteOffset": 279172,
   "byteLength": 24
  },
  {
   "buffer": 0,
   "byteOffset": 279196,
   "byteLength": 512
  },
  {
   "buffer": 0,
   "byteOffset": 279708,
   "byteLength": 24
  },
  {
   "buffer": 0,
   "byteOffset": 279732,
   "byteLength": 24
  },
  {
   "buffer": 0,
   "byteOffset": 279756,
   "byteLength": 512
  },
  {
   "buffer": 0,
   "byteOffset": 280268,
   "byteLength": 24
  },
  {
   "buffer": 0,
   "byteOffset": 280292,
   "byteLength": 24
  },
  {
   "buffer": 0,
   "byteOffset": 280316,
   "byteLength": 512
  },
  {
   "buffer": 0,
   "byteOffset": 280828,
   "byteLength": 24
  },
  {
   "buffer": 0,
   "byteOffset": 280852,
   "byteLength": 24
  },
  {
   "buffer": 0,
   "byteOffset": 280876,
   "byteLength": 512
  },
  {
   "buffer": 0,
   "byteOffset": 281388,
   "byteLength": 24
  },
  {
   "buffer": 0,
   "byteOffset": 281412,
   "byteLength": 24
  },
  {
   "buffer": 0,
   "byteOffset": 281436,
   "byteLength": 512
  },
  {
   "buffer": 0,
   "byteOffset": 281948,
   "byteLength": 24
  },
  {
   "buffer": 0,
   "byteOffset": 281972,
   "byteLength": 24
  },
  {
   "buffer": 0,
   "byteOffset": 281996,
   "byteLength": 512
  },
  {
   "buffer": 0,
   "byteOffset": 282508,
   "byteLength": 24
  },
  {
   "buffer": 0,
   "byteOffset": 282532,
   "byteLength": 24
  },
  {
   "buffer": 0,
   "byteOffset": 282556,
   "byteLength": 32
  },
  {
   "buffer": 0,
   "byteOffset": 282588,
   "byteLength": 24
  },
  {
   "buffer": 0,
   "byteOffset": 282612,
   "byteLength": 80
  },
  {
   "buffer": 0,
   "byteOffset": 282692,
   "byteLength": 240
  },
  {
   "buffer": 0,
   "byteOffset": 282932,
   "byteLength": 320
  },
  {
   "buffer": 0,
   "byteOffset": 283252,
   "byteLength": 8
  },
  {
   "buffer": 0,
   "byteOffset": 283260,
   "byteLength": 24
  },
  {
   "buffer": 0,
   "byteOffset": 283284,
   "byteLength": 24
  },
  {
   "buffer": 0,
   "byteOffset": 283308,
   "byteLength": 320
  },
  {
   "buffer": 0,
   "byteOffset": 283628,
   "byteLength": 24
  },
  {
   "buffer": 0,
   "byteOffset": 283652,
   "byteLength": 24
  },
  {
   "buffer": 0,
   "byteOffset": 283676,
   "byteLength": 320
  },
  {
   "buffer": 0,
   "byteOffset": 283996,
   "byteLength": 24
  },
  {
   "buffer": 0,
   "byteOffset": 284020,
   "byteLength": 24
  },
  {
   "buffer": 0,
   "byteOffset": 284044,
   "byteLength": 320
  },
  {
   "buffer": 0,
   "byteOffset": 284364,
   "byteLength": 24
  },
  {
   "buffer": 0,
   "byteOffset": 284388,
   "byteLength": 24
  },
  {
   "buffer": 0,
   "byteOffset": 284412,
   "byteLength": 320
  },
  {
   "buffer": 0,
   "byteOffset": 284732,
   "byteLength": 24
  },
  {
   "buffer": 0,
   "byteOffset": 284756,
   "byteLength": 24
  },
  {
   "buffer": 0,
   "byteOffset": 284780,
   "byteLength": 320
  },
  {
   "buffer": 0,
   "byteOffset": 285100,
   "byteLength": 24
  },
  {
   "buffer": 0,
   "byteOffset": 285124,
   "byteLength": 24
  },
  {
   "buffer": 0,
   "byteOffset": 285148,
   "byteLength": 320
  },
  {
   "buffer": 0,
   "byteOffset": 285468,
   "byteLength": 24
  },
  {
   "buffer": 0,
   "byteOffset": 285492,
   "byteLength": 24
  },
  {
   "buffer": 0,
   "byteOffset": 285516,
   "byteLength": 320
  },
  {
   "buffer": 0,
   "byteOffset": 285836,
   "byteLength": 24
  },
  {
   "buffer": 0,
   "byteOffset": 285860,
   "byteLength": 24
  },
  {
   "buffer": 0,
   "byteOffset": 285884,
   "byteLength": 320
  },
  {
   "buffer": 0,
   "byteOffset": 286204,
   "byteLength": 24
  },
  {
   "buffer": 0,
   "byteOffset": 286228,
   "byteLength": 24
  },
  {
   "buffer": 0,
   "byteOffset": 286252,
   "byteLength": 320
  },
  {
   "buffer": 0,
   "byteOffset": 286572,
   "byteLength": 24
  },
  {
   "buffer": 0,
   "byteOffset": 286596,
   "byteLength": 24
  },
  {
   "buffer": 0,
   "byteOffset": 286620,
   "byteLength": 320
  },
  {
   "buffer": 0,
   "byteOffset": 286940,
   "byteLength": 24
  },
  {
   "buffer": 0,
   "byteOffset": 286964,
   "byteLength": 24
  },
  {
   "buffer": 0,
   "byteOffset": 286988,
   "byteLength": 320
  },
  {
   "buffer": 0,
   "byteOffset": 287308,
   "byteLength": 24
  },
  {
   "buffer": 0,
   "byteOffset": 287332,
   "byteLength": 24
  },
  {
   "buffer": 0,
   "byteOffset": 287356,
   "byteLength": 320
  },
  {
   "buffer": 0,
   "byteOffset": 287676,
   "byteLength": 24
  },
  {
   "buffer": 0,
   "byteOffset": 287700,
   "byteLength": 24
  },
  {
   "buffer": 0,
   "byteOffset": 287724,
   "byteLength": 320
  },
  {
   "buffer": 0,
   "byteOffset": 288044,
   "byteLength": 24
  },
  {
   "buffer": 0,
   "byteOffset": 288068,
   "byteLength": 24
  },
  {
   "buffer": 0,
   "byteOffset": 288092,
   "byteLength": 320
  },
  {
   "buffer": 0,
   "byteOffset": 288412,
   "byteLength": 24
  },
  {
   "buffer": 0,
   "byteOffset": 288436,
   "byteLength": 24
  },
  {
   "buffer": 0,
   "byteOffset": 288460,
   "byteLength": 320
  },
  {
   "buffer": 0,
   "byteOffset": 288780,
   "byteLength": 24
  },
  {
   "buffer": 0,
   "byteOffset": 288804,
   "byteLength": 24
  },
  {
   "buffer": 0,
   "byteOffset": 288828,
   "byteLength": 320
  },
  {
   "buffer": 0,
   "byteOffset": 289148,
   "byteLength": 24
  },
  {
   "buffer": 0,
   "byteOffset": 289172,
   "byteLength": 24
  },
  {
   "buffer": 0,
   "byteOffset": 289196,
   "byteLength": 320
  },
  {
   "buffer": 0,
   "byteOffset": 289516,
   "byteLength": 24
  },
  {
   "buffer": 0,
   "byteOffset": 289540,
   "byteLength": 24
  },
  {
   "buffer": 0,
   "byteOffset": 289564,
   "byteLength": 320
  },
  {
   "buffer": 0,
   "byteOffset": 289884,
   "byteLength": 24
  },
  {
   "buffer": 0,
   "byteOffset": 289908,
   "byteLength": 24
  },
  {
   "buffer": 0,
   "byteOffset": 289932,
   "byteLength": 320
  },
  {
   "buffer": 0,
   "byteOffset": 290252,
   "byteLength": 24
  },
  {
   "buffer": 0,
   "byteOffset": 290276,
   "byteLength": 24
  },
  {
   "buffer": 0,
   "byteOffset": 290300,
   "byteLength": 320
  },
  {
   "buffer": 0,
   "byteOffset": 290620,
   "byteLength": 24
  },
  {
   "buffer": 0,
   "byteOffset": 290644,
   "byteLength": 24
  },
  {
   "buffer": 0,
   "byteOffset": 290668,
   "byteLength": 320
  },
  {
   "buffer": 0,
   "byteOffset": 290988,
   "byteLength": 24
  },
  {
   "buffer": 0,
   "byteOffset": 291012,
   "byteLength": 24
  },
  {
   "buffer": 0,
   "byteOffset": 291036,
   "byteLength": 320
  },
  {
   "buffer": 0,
   "byteOffset": 291356,
   "byteLength": 24
  },
  {
   "buffer": 0,
   "byteOffset": 291380,
   "byteLength": 24
  },
  {
   "buffer": 0,
   "byteOffset": 291404,
   "byteLength": 32
  },
  {
   "buffer": 0,
   "byteOffset": 291436,
   "byteLength": 24
  }
 ],
 "samplers": [
  {
   "magFilter": 9729,
   "minFilter": 9987
  }
 ],
 "buffers": [
  {
   "byteLength": 291460,
   "uri": "Low_Poly_Motorcyclist_2_lowpoly_deps/Low_Poly_Motorcyclist_2_lowpoly.bin"
  }
 ],
 "animations": [
  {
   "channels": [
    {
     "sampler": 0,
     "target": {
      "node": 23,
      "path": "translation"
     }
    },
    {
     "sampler": 1,
     "target": {
      "node": 23,
      "path": "rotation"
     }
    },
    {
     "sampler": 2,
     "target": {
      "node": 23,
      "path": "scale"
     }
    },
    {
     "sampler": 3,
     "target": {
      "node": 3,
      "path": "translation"
     }
    },
    {
     "sampler": 4,
     "target": {
      "node": 3,
      "path": "rotation"
     }
    },
    {
     "sampler": 5,
     "target": {
      "node": 3,
      "path": "scale"
     }
    },
    {
     "sampler": 6,
     "target": {
      "node": 2,
      "path": "translation"
     }
    },
    {
     "sampler": 7,
     "target": {
      "node": 2,
      "path": "rotation"
     }
    },
    {
     "sampler": 8,
     "target": {
      "node": 2,
      "path": "scale"
     }
    },
    {
     "sampler": 9,
     "target": {
      "node": 1,
      "path": "translation"
     }
    },
    {
     "sampler": 10,
     "target": {
      "node": 1,
      "path": "rotation"
     }
    },
    {
     "sampler": 11,
     "target": {
      "node": 1,
      "path": "scale"
     }
    },
    {
     "sampler": 12,
     "target": {
      "node": 0,
      "path": "translation"
     }
    },
    {
     "sampler": 13,
     "target": {
      "node": 0,
      "path": "rotation"
     }
    },
    {
     "sampler": 14,
     "target": {
      "node": 0,
      "path": "scale"
     }
    },
    {
     "sampler": 15,
     "target": {
      "node": 7,
      "path": "translation"
     }
    },
    {
     "sampler": 16,
     "target": {
      "node": 7,
      "path": "rotation"
     }
    },
    {
     "sampler": 17,
     "target": {
      "node": 7,
      "path": "scale"
     }
    },
    {
     "sampler": 18,
     "target": {
      "node": 6,
      "path": "translation"
     }
    },
    {
     "sampler": 19,
     "target": {
      "node": 6,
      "path": "rotation"
     }
    },
    {
     "sampler": 20,
     "target": {
      "node": 6,
      "path": "scale"
     }
    },
    {
     "sampler": 21,
     "target": {
      "node": 5,
      "path": "translation"
     }
    },
    {
     "sampler": 22,
     "target": {
      "node": 5,
      "path": "rotation"
     }
    },
    {
     "sampler": 23,
     "target": {
      "node": 5,
      "path": "scale"
     }
    },
    {
     "sampler": 24,
     "target": {
      "node": 4,
      "path": "translation"
     }
    },
    {
     "sampler": 25,
     "target": {
      "node": 4,
      "path": "rotation"
     }
    },
    {
     "sampler": 26,
     "target": {
      "node": 4,
      "path": "scale"
     }
    },
    {
     "sampler": 27,
     "target": {
      "node": 22,
      "path": "translation"
     }
    },
    {
     "sampler": 28,
     "target": {
      "node": 22,
      "path": "rotation"
     }
    },
    {
     "sampler": 29,
     "target": {
      "node": 22,
      "path": "scale"
     }
    },
    {
     "sampler": 30,
     "target": {
      "node": 21,
      "path": "translation"
     }
    },
    {
     "sampler": 31,
     "target": {
      "node": 21,
      "path": "rotation"
     }
    },
    {
     "sampler": 32,
     "target": {
      "node": 21,
      "path": "scale"
     }
    },
    {
     "sampler": 33,
     "target": {
      "node": 20,
      "path": "translation"
     }
    },
    {
     "sampler": 34,
     "target": {
      "node": 20,
      "path": "rotation"
     }
    },
    {
     "sampler": 35,
     "target": {
      "node": 20,
      "path": "scale"
     }
    },
    {
     "sampler": 36,
     "target": {
      "node": 11,
      "path": "translation"
     }
    },
    {
     "sampler": 37,
     "target": {
      "node": 11,
      "path": "rotation"
     }
    },
    {
     "sampler": 38,
     "target": {
      "node": 11,
      "path": "scale"
     }
    },
    {
     "sampler": 39,
     "target": {
      "node": 10,
      "path": "translation"
     }
    },
    {
     "sampler": 40,
     "target": {
      "node": 10,
      "path": "rotation"
     }
    },
    {
     "sampler": 41,
     "target": {
      "node": 10,
      "path": "scale"
     }
    },
    {
     "sampler": 42,
     "target": {
      "node": 9,
      "path": "translation"
     }
    },
    {
     "sampler": 43,
     "target": {
      "node": 9,
      "path": "rotation"
     }
    },
    {
     "sampler": 44,
     "target": {
      "node": 9,
      "path": "scale"
     }
    },
    {
     "sampler": 45,
     "target": {
      "node": 8,
      "path": "translation"
     }
    },
    {
     "sampler": 46,
     "target": {
      "node": 8,
      "path": "rotation"
     }
    },
    {
     "sampler": 47,
     "target": {
      "node": 8,
      "path": "scale"
     }
    },
    {
     "sampler": 48,
     "target": {
      "node": 15,
      "path": "translation"
     }
    },
    {
     "sampler": 49,
     "target": {
      "node": 15,
      "path": "rotation"
     }
    },
    {
     "sampler": 50,
     "target": {
      "node": 15,
      "path": "scale"
     }
    },
    {
     "sampler": 51,
     "target": {
      "node": 14,
      "path": "translation"
     }
    },
    {
     "sampler": 52,
     "target": {
      "node": 14,
      "path": "rotation"
     }
    },
    {
     "sampler": 53,
     "target": {
      "node": 14,
      "path": "scale"
     }
    },
    {
     "sampler": 54,
     "target": {
      "node": 13,
      "path": "translation"
     }
    },
    {
     "sampler": 55,
     "target": {
      "node": 13,
      "path": "rotation"
     }
    },
    {
     "sampler": 56,
     "target": {
      "node": 13,
      "path": "scale"
     }
    },
    {
     "sampler": 57,
     "target": {
      "node": 12,
      "path": "translation"
     }
    },
    {
     "sampler": 58,
     "target": {
      "node": 12,
      "path": "rotation"
     }
    },
    {
     "sampler": 59,
     "target": {
      "node": 12,
      "path": "scale"
     }
    },
    {
     "sampler": 60,
     "target": {
      "node": 19,
      "path": "translation"
     }
    },
    {
     "sampler": 61,
     "target": {
      "node": 19,
      "path": "rotation"
     }
    },
    {
     "sampler": 62,
     "target": {
      "node": 19,
      "path": "scale"
     }
    },
    {
     "sampler": 63,
     "target": {
      "node": 18,
      "path": "translation"
     }
    },
    {
     "sampler": 64,
     "target": {
      "node": 18,
      "path": "rotation"
     }
    },
    {
     "sampler": 65,
     "target": {
      "node": 18,
      "path": "scale"
     }
    },
    {
     "sampler": 66,
     "target": {
      "node": 16,
      "path": "translation"
     }
    },
    {
     "sampler": 67,
     "target": {
      "node": 16,
      "path": "rotation"
     }
    },
    {
     "sampler": 68,
     "target": {
      "node": 16,
      "path": "scale"
     }
    },
    {
     "sampler": 69,
     "target": {
      "node": 17,
      "path": "translation"
     }
    },
    {
     "sampler": 70,
     "target": {
      "node": 17,
      "path": "rotation"
     }
    },
    {
     "sampler": 71,
     "target": {
      "node": 17,
      "path": "scale"
     }
    }
   ],
   "name": "Walking",
   "samplers": [
    {
     "input": 80,
     "interpolation": "LINEAR",
     "output": 81
    },
    {
     "input": 80,
     "interpolation": "LINEAR",
     "output": 82
    },
    {
     "input": 83,
     "interpolation": "STEP",
     "output": 84
    },
    {
     "input": 83,
     "interpolation": "LINEAR",
     "output": 85
    },
    {
     "input": 80,
     "interpolation": "LINEAR",
     "output": 86
    },
    {
     "input": 83,
     "interpolation": "STEP",
     "output": 87
    },
    {
     "input": 83,
     "interpolation": "LINEAR",
     "output": 88
    },
    {
     "input": 80,
     "interpolation": "LINEAR",
     "output": 89
    },
    {
     "input": 83,
     "interpolation": "LINEAR",
     "output": 90
    },
    {
     "input": 83,
     "interpolation": "LINEAR",
     "output": 91
    },
    {
     "input": 80,
     "interpolation": "LINEAR",
     "output": 92
    },
    {
     "input": 83,
     "interpolation": "LINEAR",
     "output": 93
    },
    {
     "input": 83,
     "interpolation": "LINEAR",
     "output": 94
    },
    {
     "input": 80,
     "interpolation": "LINEAR",
     "output": 95
    },
    {
     "input": 83,
     "interpolation": "STEP",
     "output": 96
    },
    {
     "input": 83,
     "interpolation": "LINEAR",
     "output": 97
    },
    {
     "input": 80,
     "interpolation": "LINEAR",
     "output": 98
    },
    {
     "input": 83,
     "interpolation": "LINEAR",
     "output": 99
    },
    {
     "input": 83,
     "interpolation": "LINEAR",
     "output": 100
    },
    {
     "input": 80,
     "interpolation": "LINEAR",
     "output": 101
    },
    {
     "input": 83,
     "interpolation": "STEP",
     "output": 102
    },
    {
     "input": 83,
     "interpolation": "LINEAR",
     "output": 103
    },
    {
     "input": 80,
     "interpolation": "LINEAR",
     "output": 104
    },
    {
     "input": 83,
     "interpolation": "STEP",
     "output": 105
    },
    {
     "input": 83,
     "interpolation": "LINEAR",
     "output": 106
    },
    {
     "input": 80,
     "interpolation": "LINEAR",
     "output": 107
    },
    {
     "input": 83,
     "interpolation": "STEP",
     "output": 108
    },
    {
     "input": 83,
     "interpolation": "LINEAR",
     "output": 109
    },
    {
     "input": 80,
     "interpolation": "LINEAR",
     "output": 110
    },
    {
     "input": 83,
     "interpolation": "STEP",
     "output": 111
    },
    {
     "input": 83,
     "interpolation": "LINEAR",
     "output": 112
    },
    {
     "input": 80,
     "interpolation": "LINEAR",
     "output": 113
    },
    {
     "input": 83,
     "interpolation": "STEP",
     "output": 114
    },
    {
     "input": 83,
     "interpolation": "LINEAR",
     "output": 115
    },
    {
     "input": 80,
     "interpolation": "LINEAR",
     "output": 116
    },
    {
     "input": 83,
     "interpolation": "STEP",
     "output": 117
    },
    {
     "input": 83,
     "interpolation": "LINEAR",
     "output": 118
    },
    {
     "input": 80,
     "interpolation": "LINEAR",
     "output": 119
    },
    {
     "input": 83,
     "interpolation": "LINEAR",
     "output": 120
    },
    {
     "input": 83,
     "interpolation": "LINEAR",
     "output": 121
    },
    {
     "input": 80,
     "interpolation": "LINEAR",
     "output": 122
    },
    {
     "input": 83,
     "interpolation": "LINEAR",
     "output": 123
    },
    {
     "input": 83,
     "interpolation": "LINEAR",
     "output": 124
    },
    {
     "input": 80,
     "interpolation": "LINEAR",
     "output": 125
    },
    {
     "input": 83,
     "interpolation": "LINEAR",
     "output": 126
    },
    {
     "input": 83,
     "interpolation": "LINEAR",
     "output": 127
    },
    {
     "input": 80,
     "interpolation": "LINEAR",
     "output": 128
    },
    {
     "input": 83,
     "interpolation": "STEP",
     "output": 129
    },
    {
     "input": 83,
     "interpolation": "LINEAR",
     "output": 130
    },
    {
     "input": 80,
     "interpolation": "LINEAR",
     "output": 131
    },
    {
     "input": 83,
     "interpolation": "STEP",
     "output": 132
    },
    {
     "input": 83,
     "interpolation": "LINEAR",
     "output": 133
    },
    {
     "input": 80,
     "interpolation": "LINEAR",
     "output": 134
    },
    {
     "input": 83,
     "interpolation": "LINEAR",
     "output": 135
    },
    {
     "input": 83,
     "interpolation": "LINEAR",
     "output": 136
    },
    {
     "input": 80,
     "interpolation": "LINEAR",
     "output": 137
    },
    {
     "input": 83,
     "interpolation": "LINEAR",
     "output": 138
    },
    {
     "input": 83,
     "interpolation": "LINEAR",
     "output": 139
    },
    {
     "input": 80,
     "interpolation": "LINEAR",
     "output": 140
    },
    {
     "input": 83,
     "interpolation": "STEP",
     "output": 141
    },
    {
     "input": 83,
     "interpolation": "LINEAR",
     "output": 142
    },
    {
     "input": 80,
     "interpolation": "LINEAR",
     "output": 143
    },
    {
     "input": 83,
     "interpolation": "STEP",
     "output": 144
    },
    {
     "input": 83,
     "interpolation": "LINEAR",
     "output": 145
    },
    {
     "input": 80,
     "interpolation": "LINEAR",
     "output": 146
    },
    {
     "input": 83,
     "interpolation": "LINEAR",
     "output": 147
    },
    {
     "input": 83,
     "interpolation": "LINEAR",
     "output": 148
    },
    {
     "input": 80,
     "interpolation": "LINEAR",
     "output": 149
    },
    {
     "input": 83,
     "interpolation": "STEP",
     "output": 150
    },
    {
     "input": 83,
     "interpolation": "LINEAR",
     "output": 151
    },
    {
     "input": 83,
     "interpolation": "LINEAR",
     "output": 152
    },
    {
     "input": 83,
     "interpolation": "STEP",
     "output": 153
    }
   ]
  },
  {
   "channels": [
    {
     "sampler": 0,
     "target": {
      "node": 23,
      "path": "translation"
     }
    },
    {
     "sampler": 1,
     "target": {
      "node": 23,
      "path": "rotation"
     }
    },
    {
     "sampler": 2,
     "target": {
      "node": 23,
      "path": "scale"
     }
    },
    {
     "sampler": 3,
     "target": {
      "node": 3,
      "path": "translation"
     }
    },
    {
     "sampler": 4,
     "target": {
      "node": 3,
      "path": "rotation"
     }
    },
    {
     "sampler": 5,
     "target": {
      "node": 3,
      "path": "scale"
     }
    },
    {
     "sampler": 6,
     "target": {
      "node": 2,
      "path": "translation"
     }
    },
    {
     "sampler": 7,
     "target": {
      "node": 2,
      "path": "rotation"
     }
    },
    {
     "sampler": 8,
     "target": {
      "node": 2,
      "path": "scale"
     }
    },
    {
     "sampler": 9,
     "target": {
      "node": 1,
      "path": "translation"
     }
    },
    {
     "sampler": 10,
     "target": {
      "node": 1,
      "path": "rotation"
     }
    },
    {
     "sampler": 11,
     "target": {
      "node": 1,
      "path": "scale"
     }
    },
    {
     "sampler": 12,
     "target": {
      "node": 0,
      "path": "translation"
     }
    },
    {
     "sampler": 13,
     "target": {
      "node": 0,
      "path": "rotation"
     }
    },
    {
     "sampler": 14,
     "target": {
      "node": 0,
      "path": "scale"
     }
    },
    {
     "sampler": 15,
     "target": {
      "node": 7,
      "path": "translation"
     }
    },
    {
     "sampler": 16,
     "target": {
      "node": 7,
      "path": "rotation"
     }
    },
    {
     "sampler": 17,
     "target": {
      "node": 7,
      "path": "scale"
     }
    },
    {
     "sampler": 18,
     "target": {
      "node": 6,
      "path": "translation"
     }
    },
    {
     "sampler": 19,
     "target": {
      "node": 6,
      "path": "rotation"
     }
    },
    {
     "sampler": 20,
     "target": {
      "node": 6,
      "path": "scale"
     }
    },
    {
     "sampler": 21,
     "target": {
      "node": 5,
      "path": "translation"
     }
    },
    {
     "sampler": 22,
     "target": {
      "node": 5,
      "path": "rotation"
     }
    },
    {
     "sampler": 23,
     "target": {
      "node": 5,
      "path": "scale"
     }
    },
    {
     "sampler": 24,
     "target": {
      "node": 4,
      "path": "translation"
     }
    },
    {
     "sampler": 25,
     "target": {
      "node": 4,
      "path": "rotation"
     }
    },
    {
     "sampler": 26,
     "target": {
      "node": 4,
      "path": "scale"
     }
    },
    {
     "sampler": 27,
     "target": {
      "node": 22,
      "path": "translation"
     }
    },
    {
     "sampler": 28,
     "target": {
      "node": 22,
      "path": "rotation"
     }
    },
    {
     "sampler": 29,
     "target": {
      "node": 22,
      "path": "scale"
     }
    },
    {
     "sampler": 30,
     "target": {
      "node": 21,
      "path": "translation"
     }
    },
    {
     "sampler": 31,
     "target": {
      "node": 21,
      "path": "rotation"
     }
    },
    {
     "sampler": 32,
     "target": {
      "node": 21,
      "path": "scale"
     }
    },
    {
     "sampler": 33,
     "target": {
      "node": 20,
      "path": "translation"
     }
    },
    {
     "sampler": 34,
     "target": {
      "node": 20,
      "path": "rotation"
     }
    },
    {
     "sampler": 35,
     "target": {
      "node": 20,
      "path": "scale"
     }
    },
    {
     "sampler": 36,
     "target": {
      "node": 11,
      "path": "translation"
     }
    },
    {
     "sampler": 37,
     "target": {
      "node": 11,
      "path": "rotation"
     }
    },
    {
     "sampler": 38,
     "target": {
      "node": 11,
      "path": "scale"
     }
    },
    {
     "sampler": 39,
     "target": {
      "node": 10,
      "path": "translation"
     }
    },
    {
     "sampler": 40,
     "target": {
      "node": 10,
      "path": "rotation"
     }
    },
    {
     "sampler": 41,
     "target": {
      "node": 10,
      "path": "scale"
     }
    },
    {
     "sampler": 42,
     "target": {
      "node": 9,
      "path": "translation"
     }
    },
    {
     "sampler": 43,
     "target": {
      "node": 9,
      "path": "rotation"
     }
    },
    {
     "sampler": 44,
     "target": {
      "node": 9,
      "path": "scale"
     }
    },
    {
     "sampler": 45,
     "target": {
      "node": 8,
      "path": "translation"
     }
    },
    {
     "sampler": 46,
     "target": {
      "node": 8,
      "path": "rotation"
     }
    },
    {
     "sampler": 47,
     "target": {
      "node": 8,
      "path": "scale"
     }
    },
    {
     "sampler": 48,
     "target": {
      "node": 15,
      "path": "translation"
     }
    },
    {
     "sampler": 49,
     "target": {
      "node": 15,
      "path": "rotation"
     }
    },
    {
     "sampler": 50,
     "target": {
      "node": 15,
      "path": "scale"
     }
    },
    {
     "sampler": 51,
     "target": {
      "node": 14,
      "path": "translation"
     }
    },
    {
     "sampler": 52,
     "target": {
      "node": 14,
      "path": "rotation"
     }
    },
    {
     "sampler": 53,
     "target": {
      "node": 14,
      "path": "scale"
     }
    },
    {
     "sampler": 54,
     "target": {
      "node": 13,
      "path": "translation"
     }
    },
    {
     "sampler": 55,
     "target": {
      "node": 13,
      "path": "rotation"
     }
    },
    {
     "sampler": 56,
     "target": {
      "node": 13,
      "path": "scale"
     }
    },
    {
     "sampler": 57,
     "target": {
      "node": 12,
      "path": "translation"
     }
    },
    {
     "sampler": 58,
     "target": {
      "node": 12,
      "path": "rotation"
     }
    },
    {
     "sampler": 59,
     "target": {
      "node": 12,
      "path": "scale"
     }
    },
    {
     "sampler": 60,
     "target": {
      "node": 19,
      "path": "translation"
     }
    },
    {
     "sampler": 61,
     "target": {
      "node": 19,
      "path": "rotation"
     }
    },
    {
     "sampler": 62,
     "target": {
      "node": 19,
      "path": "scale"
     }
    },
    {
     "sampler": 63,
     "target": {
      "node": 18,
      "path": "translation"
     }
    },
    {
     "sampler": 64,
     "target": {
      "node": 18,
      "path": "rotation"
     }
    },
    {
     "sampler": 65,
     "target": {
      "node": 18,
      "path": "scale"
     }
    },
    {
     "sampler": 66,
     "target": {
      "node": 16,
      "path": "translation"
     }
    },
    {
     "sampler": 67,
     "target": {
      "node": 16,
      "path": "rotation"
     }
    },
    {
     "sampler": 68,
     "target": {
      "node": 16,
      "path": "scale"
     }
    },
    {
     "sampler": 69,
     "target": {
      "node": 17,
      "path": "translation"
     }
    },
    {
     "sampler": 70,
     "target": {
      "node": 17,
      "path": "rotation"
     }
    },
    {
     "sampler": 71,
     "target": {
      "node": 17,
      "path": "scale"
     }
    }
   ],
   "name": "Running",
   "samplers": [
    {
     "input": 154,
     "interpolation": "LINEAR",
     "output": 155
    },
    {
     "input": 154,
     "interpolation": "LINEAR",
     "output": 156
    },
    {
     "input": 157,
     "interpolation": "STEP",
     "output": 158
    },
    {
     "input": 157,
     "interpolation": "LINEAR",
     "output": 159
    },
    {
     "input": 154,
     "interpolation": "LINEAR",
     "output": 160
    },
    {
     "input": 157,
     "interpolation": "LINEAR",
     "output": 161
    },
    {
     "input": 157,
     "interpolation": "LINEAR",
     "output": 162
    },
    {
     "input": 154,
     "interpolation": "LINEAR",
     "output": 163
    },
    {
     "input": 157,
     "interpolation": "LINEAR",
     "output": 164
    },
    {
     "input": 157,
     "interpolation": "LINEAR",
     "output": 165
    },
    {
     "input": 154,
     "interpolation": "LINEAR",
     "output": 166
    },
    {
     "input": 157,
     "interpolation": "LINEAR",
     "output": 167
    },
    {
     "input": 157,
     "interpolation": "LINEAR",
     "output": 168
    },
    {
     "input": 154,
     "interpolation": "LINEAR",
     "output": 169
    },
    {
     "input": 157,
     "interpolation": "STEP",
     "output": 170
    },
    {
     "input": 157,
     "interpolation": "LINEAR",
     "output": 171
    },
    {
     "input": 154,
     "interpolation": "LINEAR",
     "output": 172
    },
    {
     "input": 157,
     "interpolation": "LINEAR",
     "output": 173
    },
    {
     "input": 157,
     "interpolation": "LINEAR",
     "output": 174
    },
    {
     "input": 154,
     "interpolation": "LINEAR",
     "output": 175
    },
    {
     "input": 157,
     "interpolation": "LINEAR",
     "output": 176
    },
    {
     "input": 157,
     "interpolation": "LINEAR",
     "output": 177
    },
    {
     "input": 154,
     "interpolation": "LINEAR",
     "output": 178
    },
    {
     "input": 157,
     "interpolation": "LINEAR",
     "output": 179
    },
    {
     "input": 157,
     "interpolation": "LINEAR",
     "output": 180
    },
    {
     "input": 154,
     "interpolation": "LINEAR",
     "output": 181
    },
    {
     "input": 157,
     "interpolation": "LINEAR",
     "output": 182
    },
    {
     "input": 157,
     "interpolation": "LINEAR",
     "output": 183
    },
    {
     "input": 154,
     "interpolation": "LINEAR",
     "output": 184
    },
    {
     "input": 157,
     "interpolation": "LINEAR",
     "output": 185
    },
    {
     "input": 157,
     "interpolation": "LINEAR",
     "output": 186
    },
    {
     "input": 154,
     "interpolation": "LINEAR",
     "output": 187
    },
    {
     "input": 157,
     "interpolation": "LINEAR",
     "output": 188
    },
    {
     "input": 157,
     "interpolation": "LINEAR",
     "output": 189
    },
    {
     "input": 154,
     "interpolation": "LINEAR",
     "output": 190
    },
    {
     "input": 157,
     "interpolation": "STEP",
     "output": 191
    },
    {
     "input": 157,
     "interpolation": "LINEAR",
     "output": 192
    },
    {
     "input": 154,
     "interpolation": "LINEAR",
     "output": 193
    },
    {
     "input": 157,
     "interpolation": "STEP",
     "output": 194
    },
    {
     "input": 157,
     "interpolation": "LINEAR",
     "output": 195
    },
    {
     "input": 154,
     "interpolation": "LINEAR",
     "output": 196
    },
    {
     "input": 157,
     "interpolation": "LINEAR",
     "output": 197
    },
    {
     "input": 157,
     "interpolation": "LINEAR",
     "output": 198
    },
    {
     "input": 154,
     "interpolation": "LINEAR",
     "output": 199
    },
    {
     "input": 157,
     "interpolation": "LINEAR",
     "output": 200
    },
    {
     "input": 157,
     "interpolation": "LINEAR",
     "output": 201
    },
    {
     "input": 154,
     "interpolation": "LINEAR",
     "output": 202
    },
    {
     "input": 157,
     "interpolation": "LINEAR",
     "output": 203
    },
    {
     "input": 157,
     "interpolation": "LINEAR",
     "output": 204
    },
    {
     "input": 154,
     "interpolation": "LINEAR",
     "output": 205
    },
    {
     "input": 157,
     "interpolation": "STEP",
     "output": 206
    },
    {
     "input": 157,
     "interpolation": "LINEAR",
     "output": 207
    },
    {
     "input": 154,
     "interpolation": "LINEAR",
     "output": 208
    },
    {
     "input": 157,
     "interpolation": "LINEAR",
     "output": 209
    },
    {
     "input": 157,
     "interpolation": "LINEAR",
     "output": 210
    },
    {
     "input": 154,
     "interpolation": "LINEAR",
     "output": 211
    },
    {
     "input": 157,
     "interpolation": "LINEAR",
     "output": 212
    },
    {
     "input": 157,
     "interpolation": "LINEAR",
     "output": 213
    },
    {
     "input": 154,
     "interpolation": "LINEAR",
     "output": 214
    },
    {
     "input": 157,
     "interpolation": "LINEAR",
     "output": 215
    },
    {
     "input": 157,
     "interpolation": "LINEAR",
     "output": 216
    },
    {
     "input": 154,
     "interpolation": "LINEAR",
     "output": 217
    },
    {
     "input": 157,
     "interpolation": "STEP",
     "output": 218
    },
    {
     "input": 157,
     "interpolation": "LINEAR",
     "output": 219
    },
    {
     "input": 154,
     "interpolation": "LINEAR",
     "output": 220
    },
    {
     "input": 157,
     "interpolation": "LINEAR",
     "output": 221
    },
    {
     "input": 157,
     "interpolation": "LINEAR",
     "output": 222
    },
    {
     "input": 154,
     "interpolation": "LINEAR",
     "output": 223
    },
    {
     "input": 157,
     "interpolation": "LINEAR",
     "output": 224
    },
    {
     "input": 157,
     "interpolation": "LINEAR",
     "output": 225
    },
    {
     "input": 157,
     "interpolation": "LINEAR",
     "output": 226
    },
    {
     "input": 157,
     "interpolation": "STEP",
     "output": 227
    }
   ]
  }
 ]
}