{
 "asset": {
  "generator": "MotoSim tools/riggear_piloto.py (Blender 5.0.1)",
  "version": "2.0"
 },
 "scene": 0,
 "scenes": [
  {
   "name": "Scene",
   "nodes": [
    65
   ]
  }
 ],
 "nodes": [
  {
   "name": "head_end",
   "translation": [
    0,
    0.23643755912780762,
    0
   ]
  },
  {
   "name": "headfront",
   "rotation": [
    3.090861255827804e-08,
    -0.70710688829422,
    -0.7071066498756409,
    3.0908619663705394e-08
   ],
   "translation": [
    0,
    1.759564227654664e-08,
    0.17722751200199127
   ]
  },
  {
   "children": [
    0,
    1
   ],
   "name": "Head",
   "translation": [
    0,
    0.07881247997283936,
    0
   ]
  },
  {
   "children": [
    2
   ],
   "name": "neck",
   "rotation": [
    -0.091816246509552,
    0,
    0,
    0.9957759380340576
   ],
   "scale": [
    1,
    1,
    0.9999999403953552
   ],
   "translation": [
    -4.656612873077393e-10,
    0.09431009739637375,
    1.862645149230957e-08
   ]
  },
  {
   "name": "LeftHandThumb4",
   "rotation": [
    -1.257285475730896e-07,
    -1.109205186367035e-06,
    5.112960934638977e-07,
    1
   ],
   "scale": [
    1,
    0.9999999403953552,
    1
   ],
   "translation": [
    8.381903171539307e-09,
    0.023822743445634842,
    2.2351741790771484e-08
   ]
  },
  {
   "children": [
    4
   ],
   "name": "LeftHandThumb3",
   "rotation": [
    1.5273690223693848e-07,
    -1.7769632449926576e-06,
    7.590278414681961e-07,
    1
   ],
   "scale": [
    1.0000001192092896,
    1,
    1.0000001192092896
   ],
   "translation": [
    6.51925802230835e-09,
    0.02905808761715889,
    1.4156103134155273e-07
   ]
  },
  {
   "children": [
    5
   ],
   "name": "LeftHandThumb2",
   "rotation": [
    0.07308628410100937,
    0.021445004269480705,
    -0.017852148041129112,
    0.9969351887702942
   ],
   "scale": [
    0.9999999403953552,
    0.9999999403953552,
    1.0000001192092896
   ],
   "translation": [
    -4.0978193283081055e-08,
    0.06459712237119675,
    0
   ]
  },
  {
   "children": [
    6
   ],
   "name": "LeftHandThumb1",
   "rotation": [
    -0.30551666021347046,
    -0.6167393922805786,
    0.2571858763694763,
    0.6783417463302612
   ],
   "scale": [
    0.9999999403953552,
    1.0000001192092896,
    1
   ],
   "translation": [
    0.0009714327752590179,
    0.023688236251473427,
    -0.025451451539993286
   ]
  },
  {
   "name": "LeftHandIndex4",
   "rotation": [
    2.3376193780677568e-07,
    1.2833623941332917e-06,
    -9.359790738017182e-07,
    1
   ],
   "scale": [
    1.0000001192092896,
    1.0000001192092896,
    1.0000001192092896
   ],
   "translation": [
    7.450580596923828e-09,
    0.021317873150110245,
    -4.470348358154297e-08
   ]
  },
  {
   "children": [
    8
   ],
   "name": "LeftHandIndex3",
   "rotation": [
    7.385388585134933e-07,
    -1.8589200863061706e-06,
    1.1865049600601196e-06,
    1
   ],
   "scale": [
    0.9999999403953552,
    1,
    0.9999999403953552
   ],
   "translation": [
    3.725290298461914e-08,
    0.026188451796770096,
    0
   ]
  },
  {
   "children": [
    9
   ],
   "name": "LeftHandIndex2",
   "rotation": [
    -1.788139485370266e-07,
    1.1436641216278076e-06,
    -6.69620931148529e-07,
    1
   ],
   "scale": [
    1,
    1,
    0.9999999403953552
   ],
   "translation": [
    -2.60770320892334e-08,
    0.04302395507693291,
    -7.450580596923828e-09
   ]
  },
  {
   "children": [
    10
   ],
   "name": "LeftHandIndex1",
   "rotation": [
    -0.09232151508331299,
    -0.5448150634765625,
    0.39093127846717834,
    0.7360883951187134
   ],
   "scale": [
    0.9999999403953552,
    0.9999999403953552,
    1
   ],
   "translation": [
    0.016113370656967163,
    0.11766129732131958,
    -0.02653445303440094
   ]
  },
  {
   "name": "LeftHandMiddle4",
   "rotation": [
    4.4330954551696777e-07,
    -8.23289155960083e-07,
    5.885958671569824e-07,
    1
   ],
   "translation": [
    1.862645149230957e-09,
    0.02407081425189972,
    0
   ]
  },
  {
   "children": [
    12
   ],
   "name": "LeftHandMiddle3",
   "rotation": [
    -5.080364644527435e-07,
    2.2137537598609924e-06,
    -1.712702214717865e-06,
    1
   ],
   "scale": [
    1,
    1,
    0.9999999403953552
   ],
   "translation": [
    1.30385160446167e-08,
    0.02915320359170437,
    1.4901161193847656e-08
   ]
  },
  {
   "children": [
    13
   ],
   "name": "LeftHandMiddle2",
   "rotation": [
    3.9860611877884367e-07,
    -1.1082739774792572e-06,
    8.717181003703445e-07,
    1
   ],
   "scale": [
    0.9999999403953552,
    0.9999998211860657,
    0.9999999403953552
   ],
   "translation": [
    -4.6566128730773926e-09,
    0.047894589602947235,
    -1.4901161193847656e-08
   ]
  },
  {
   "children": [
    14
   ],
   "name": "LeftHandMiddle1",
   "rotation": [
    -0.02684609219431877,
    -0.5147689580917358,
    0.42505359649658203,
    0.7440575361251831
   ],
   "scale": [
    0.9999998807907104,
    0.9999998211860657,
    0.9999998807907104
   ],
   "translation": [
    -8.195638656616211e-08,
    0.11991143226623535,
    8.195638656616211e-08
   ]
  },
  {
   "name": "LeftHandRing4",
   "rotation": [
    2.3026950657367706e-07,
    -1.410720869898796e-06,
    1.3029202818870544e-06,
    1
   ],
   "translation": [
    1.6763806343078613e-08,
    0.025165902450680733,
    -7.450580596923828e-09
   ]
  },
  {
   "children": [
    16
   ],
   "name": "LeftHandRing3",
   "rotation": [
    -1.2433156371116638e-07,
    -7.887138053774834e-07,
    7.431954145431519e-07,
    1
   ],
   "translation": [
    -4.842877388000488e-08,
    0.030332645401358604,
    -7.450580596923828e-09
   ]
  },
  {
   "children": [
    17
   ],
   "name": "LeftHandRing2",
   "rotation": [
    1.6472768038511276e-07,
    -1.1909287422895432e-07,
    8.882489055395126e-08,
    1
   ],
   "translation": [
    -1.4901161193847656e-08,
    0.04983210936188698,
    0
   ]
  },
  {
   "children": [
    18
   ],
   "name": "LeftHandRing1",
   "rotation": [
    0.027540674433112144,
    -0.44599732756614685,
    0.4151120185852051,
    0.7924707531929016
   ],
   "scale": [
    1,
    0.9999998807907104,
    0.9999998807907104
   ],
   "translation": [
    -0.013026323169469833,
    0.10612362623214722,
    0.01841197907924652
   ]
  },
  {
   "name": "LeftHandPinky4",
   "rotation": [
    -6.309710443019867e-08,
    3.9621954783797264e-07,
    -3.9010774344205856e-07,
    1
   ],
   "translation": [
    -2.0489096641540527e-08,
    0.01787664368748665,
    -2.1420419216156006e-08
   ]
  },
  {
   "children": [
    20
   ],
   "name": "LeftHandPinky3",
   "rotation": [
    1.655425876379013e-07,
    -9.329525028078933e-07,
    8.889474543138931e-07,
    1
   ],
   "scale": [
    0.9999999403953552,
    1,
    0.9999999403953552
   ],
   "translation": [
    5.587935447692871e-08,
    0.022482527419924736,
    -7.450580596923828e-09
   ]
  },
  {
   "children": [
    21
   ],
   "name": "LeftHandPinky2",
   "rotation": [
    3.771856782464056e-08,
    -4.23111515601704e-07,
    4.895264282822609e-07,
    1
   ],
   "scale": [
    1,
    0.9999998807907104,
    0.9999998807907104
   ],
   "translation": [
    -5.587935447692871e-09,
    0.03693557158112526,
    -6.51925802230835e-09
   ]
  },
  {
   "children": [
    22
   ],
   "name": "LeftHandPinky1",
   "rotation": [
    0.052481260150671005,
    -0.48295554518699646,
    0.47040489315986633,
    0.7366946339607239
   ],
   "scale": [
    0.9999999403953552,
    1.0000001192092896,
    1
   ],
   "translation": [
    -0.040489960461854935,
    0.10683022439479828,
    0.04046590253710747
   ]
  },
  {
   "children": [
    7,
    11,
    15,
    19,
    23
   ],
   "name": "LeftHand",
   "rotation": [
    -0.006624950096011162,
    0.0727844312787056,
    -0.06970866769552231,
    0.9948865175247192
   ],
   "scale": [
    1,
    1.0000001192092896,
    1
   ],
   "translation": [
    9.313225746154785e-09,
    0.2341419756412506,
    5.960464477539063e-08
   ]
  },
  {
   "children": [
    24
   ],
   "name": "LeftForeArm",
   "rotation": [
    -0.07783450931310654,
    -0.02576626092195511,
    -0.034816641360521317,
    0.9960249662399292
   ],
   "translation": [
    -1.1175870895385742e-08,
    0.28959062695503235,
    1.30385160446167e-08
   ]
  },
  {
   "children": [
    25
   ],
   "name": "LeftArm",
   "rotation": [
    -0.448901504278183,
    -0.3543959856033325,
    0.023746924474835396,
    0.8199555277824402
   ],
   "scale": [
    0.9999999403953552,
    1,
    1
   ],
   "translation": [
    1.0710209608078003e-08,
    0.12312542647123337,
    3.259629011154175e-08
   ]
  },
  {
   "children": [
    26
   ],
   "name": "LeftShoulder",
   "rotation": [
    -0.6204457879066467,
    -0.4757261574268341,
    -0.39540302753448486,
    0.4820665121078491
   ],
   "scale": [
    1.0000001192092896,
    1,
    0.9999999403953552
   ],
   "translation": [
    0.03500000014901161,
    0.02453899011015892,
    -0.016246479004621506
   ]
  },
  {
   "name": "RightHandThumb4",
   "rotation": [
    -2.8870999813079834e-08,
    1.1534430086612701e-06,
    -4.838220775127411e-07,
    1
   ],
   "scale": [
    0.9999999403953552,
    1,
    1
   ],
   "translation": [
    -5.634501576423645e-08,
    0.02457907795906067,
    7.450580596923828e-09
   ]
  },
  {
   "children": [
    28
   ],
   "name": "RightHandThumb3",
   "rotation": [
    -9.097857969209144e-07,
    -4.6333300929291e-07,
    1.410953842650997e-07,
    1
   ],
   "scale": [
    0.9999999403953552,
    0.9999999403953552,
    1
   ],
   "translation": [
    8.381903171539307e-09,
    0.029877396300435066,
    1.4901161193847656e-08
   ]
  },
  {
   "children": [
    29
   ],
   "name": "RightHandThumb2",
   "rotation": [
    0.06712384521961212,
    -0.01920362189412117,
    0.011656067334115505,
    0.997491717338562
   ],
   "scale": [
    1,
    1.0000001192092896,
    0.9999999403953552
   ],
   "translation": [
    2.7939677238464355e-08,
    0.06590145826339722,
    4.470348358154297e-08
   ]
  },
  {
   "children": [
    30
   ],
   "name": "RightHandThumb1",
   "rotation": [
    -0.32432082295417786,
    0.6155632734298706,
    -0.23484042286872864,
    0.6787840723991394
   ],
   "translation": [
    -0.0028554126620292664,
    0.024106454104185104,
    -0.02588322013616562
   ]
  },
  {
   "name": "RightHandIndex4",
   "rotation": [
    5.448237061500549e-07,
    -3.799795820214058e-07,
    2.654269337654114e-07,
    1
   ],
   "scale": [
    1.0000001192092896,
    1,
    1
   ],
   "translation": [
    -3.632158041000366e-08,
    0.023971233516931534,
    7.450580596923828e-09
   ]
  },
  {
   "children": [
    32
   ],
   "name": "RightHandIndex3",
   "rotation": [
    1.9185245037078857e-07,
    1.1753290891647339e-06,
    -6.742775440216064e-07,
    1
   ],
   "translation": [
    3.4458935260772705e-08,
    0.02904597669839859,
    1.043081283569336e-07
   ]
  },
  {
   "children": [
    33
   ],
   "name": "RightHandIndex2",
   "rotation": [
    -3.664754331111908e-07,
    -9.499490261077881e-08,
    -2.8870999813079834e-08,
    1
   ],
   "translation": [
    -1.4901161193847656e-08,
    0.047718390822410583,
    -1.4901161193847656e-08
   ]
  },
  {
   "children": [
    34
   ],
   "name": "RightHandIndex1",
   "rotation": [
    -0.17124633491039276,
    0.5663630366325378,
    -0.34930652379989624,
    0.7265621423721313
   ],
   "scale": [
    1,
    0.9999999403953552,
    1
   ],
   "translation": [
    -0.010915756225585938,
    0.10987942665815353,
    -0.01841083914041519
   ]
  },
  {
   "name": "RightHandMiddle4",
   "rotation": [
    -4.0279701352119446e-07,
    -1.5962868928909302e-06,
    1.2451782822608948e-06,
    1
   ],
   "translation": [
    4.377216100692749e-08,
    0.026176203042268753,
    -3.725290298461914e-09
   ]
  },
  {
   "children": [
    36
   ],
   "name": "RightHandMiddle3",
   "rotation": [
    2.90339784214666e-07,
    -1.1334195733070374e-06,
    9.257345823243668e-07,
    1
   ],
   "scale": [
    1,
    1.0000001192092896,
    1.0000001192092896
   ],
   "translation": [
    -2.2351741790771484e-08,
    0.03142049163579941,
    -2.2351741790771484e-08
   ]
  },
  {
   "children": [
    37
   ],
   "name": "RightHandMiddle2",
   "rotation": [
    -2.9033981263637543e-07,
    -2.5099143385887146e-07,
    3.67872416973114e-08,
    1
   ],
   "scale": [
    1,
    1.0000001192092896,
    1
   ],
   "translation": [
    5.4016709327697754e-08,
    0.051619384437799454,
    -1.4901161193847656e-08
   ]
  },
  {
   "children": [
    38
   ],
   "name": "RightHandMiddle1",
   "rotation": [
    -0.061890069395303726,
    0.5163134932518005,
    -0.4171695411205292,
    0.7453587055206299
   ],
   "scale": [
    1,
    1.0000001192092896,
    1.0000001192092896
   ],
   "translation": [
    2.60770320892334e-08,
    0.114277184009552,
    9.313225746154785e-08
   ]
  },
  {
   "name": "RightHandRing4",
   "rotation": [
    -6.426125764846802e-08,
    -1.4682300388813019e-06,
    1.3010576367378235e-06,
    1
   ],
   "translation": [
    1.955777406692505e-08,
    0.02184480056166649,
    1.4901161193847656e-08
   ]
  },
  {
   "children": [
    40
   ],
   "name": "RightHandRing3",
   "rotation": [
    -2.905726432800293e-07,
    -1.9567087292671204e-06,
    1.6922131180763245e-06,
    1
   ],
   "translation": [
    1.6763806343078613e-08,
    0.02675592713057995,
    -3.725290298461914e-09
   ]
  },
  {
   "children": [
    41
   ],
   "name": "RightHandRing2",
   "rotation": [
    1.895241581451046e-07,
    1.8016435205936432e-06,
    -1.6200357322304626e-06,
    1
   ],
   "scale": [
    1,
    0.9999999403953552,
    1
   ],
   "translation": [
    9.313225746154785e-09,
    0.04395633190870285,
    -7.450580596923828e-09
   ]
  },
  {
   "children": [
    42
   ],
   "name": "RightHandRing1",
   "rotation": [
    -0.022020671516656876,
    0.5102121233940125,
    -0.4532504379749298,
    0.7305907011032104
   ],
   "scale": [
    0.9999999403953552,
    1,
    1
   ],
   "translation": [
    0.02693333476781845,
    0.11745091527700424,
    0.016211528331041336
   ]
  },
  {
   "name": "RightHandPinky4",
   "rotation": [
    6.55418261885643e-08,
    2.1385494619607925e-07,
    -1.964508555829525e-07,
    1
   ],
   "translation": [
    -1.5832483768463135e-08,
    0.017928188666701317,
    -7.683411240577698e-09
   ]
  },
  {
   "children": [
    44
   ],
   "name": "RightHandPinky3",
   "rotation": [
    -1.5291152521967888e-07,
    -9.948998922482133e-07,
    9.274226613342762e-07,
    1
   ],
   "scale": [
    1,
    1,
    1.0000001192092896
   ],
   "translation": [
    4.563480615615845e-08,
    0.02253817394375801,
    -9.313225746154785e-09
   ]
  },
  {
   "children": [
    45
   ],
   "name": "RightHandPinky2",
   "rotation": [
    1.3469252735376358e-07,
    7.997005582183192e-07,
    -7.728231139481068e-07,
    1
   ],
   "scale": [
    1,
    1,
    0.9999999403953552
   ],
   "translation": [
    -4.842877388000488e-08,
    0.037026867270469666,
    -2.0954757928848267e-09
   ]
  },
  {
   "children": [
    46
   ],
   "name": "RightHandPinky1",
   "rotation": [
    0.023072872310876846,
    0.4956156015396118,
    -0.4868745505809784,
    0.7188782691955566
   ],
   "scale": [
    1.0000001192092896,
    1,
    1
   ],
   "translation": [
    0.047383151948451996,
    0.10832835733890533,
    0.033123597502708435
   ]
  },
  {
   "children": [
    31,
    35,
    39,
    43,
    47
   ],
   "name": "RightHand",
   "rotation": [
    0.009255201555788517,
    -0.10248291492462158,
    0.08597805351018906,
    0.9909688830375671
   ],
   "scale": [
    1,
    1.0000001192092896,
    1
   ],
   "translation": [
    2.2351741790771484e-08,
    0.2370496541261673,
    -6.891787052154541e-08
   ]
  },
  {
   "children": [
    48
   ],
   "name": "RightForeArm",
   "rotation": [
    -0.07653401792049408,
    0.02031889371573925,
    0.040690742433071136,
    0.9960291385650635
   ],
   "scale": [
    0.9999999403953552,
    1,
    1
   ],
   "translation": [
    -1.6763806343078613e-08,
    0.2931068241596222,
    1.4901161193847656e-08
   ]
  },
  {
   "children": [
    49
   ],
   "name": "RightArm",
   "rotation": [
    -0.44521576166152954,
    0.3450031876564026,
    -0.015586111694574356,
    0.8261433243751526
   ],
   "scale": [
    0.9999998807907104,
    0.9999998211860657,
    0.9999998807907104
   ],
   "translation": [
    2.3283064365386963e-09,
    0.11858215183019638,
    -5.494803190231323e-08
   ]
  },
  {
   "children": [
    50
   ],
   "name": "RightShoulder",
   "rotation": [
    -0.6250655055046082,
    0.47044503688812256,
    0.3910135328769684,
    0.484853595495224
   ],
   "scale": [
    0.9999998807907104,
    0.9999998211860657,
    0.9999999403953552
   ],
   "translation": [
    -0.03500000014901161,
    0.02442217245697975,
    -0.017174281179904938
   ]
  },
  {
   "children": [
    3,
    27,
    51
   ],
   "name": "Spine",
   "rotation": [
    0.18915291130542755,
    0,
    0,
    0.981947660446167
   ],
   "scale": [
    1,
    0.9999999403953552,
    1
   ],
   "translation": [
    0,
    0.13435091078281403,
    3.725290298461914e-09
   ]
  },
  {
   "children": [
    52
   ],
   "name": "Spine01",
   "rotation": [
    0.009575940668582916,
    0,
    0,
    0.9999541640281677
   ],
   "scale": [
    1,
    1,
    0.9999999403953552
   ],
   "translation": [
    0,
    0.1348903626203537,
    7.450580596923828e-09
   ]
  },
  {
   "children": [
    53
   ],
   "name": "Spine02",
   "rotation": [
    -0.19343650341033936,
    0,
    0,
    0.9811128377914429
   ],
   "scale": [
    1,
    0.9999999403953552,
    0.9999999403953552
   ],
   "translation": [
    0,
    0.1337675303220749,
    9.313225746154785e-10
   ]
  },
  {
   "name": "LeftToeBase",
   "rotation": [
    -2.0975702952341635e-08,
    0.8880012631416321,
    -0.2632337808609009,
    0.37704339623451233
   ],
   "translation": [
    -6.51925802230835e-09,
    0.1381807178258896,
    0
   ]
  },
  {
   "children": [
    55
   ],
   "name": "LeftFoot",
   "rotation": [
    -0.5104499459266663,
    0.1942150890827179,
    -0.27430805563926697,
    0.7915026545524597
   ],
   "scale": [
    1,
    0.9999997615814209,
    0.9999999403953552
   ],
   "translation": [
    -1.3969838619232178e-09,
    0.3792419731616974,
    8.381903171539307e-09
   ]
  },
  {
   "children": [
    56
   ],
   "name": "LeftLeg",
   "rotation": [
    0.11879896372556686,
    -0.03736430034041405,
    0.05449851602315903,
    0.9907172322273254
   ],
   "scale": [
    1.0000001192092896,
    1,
    1.0000001192092896
   ],
   "translation": [
    -3.015156835317612e-08,
    0.36368227005004883,
    0
   ]
  },
  {
   "children": [
    57
   ],
   "name": "LeftUpLeg",
   "rotation": [
    0.9858341813087463,
    0.09106742590665817,
    0.07649773359298706,
    0.11826179921627045
   ],
   "scale": [
    0.9999994039535522,
    0.9999997615814209,
    0.9999986290931702
   ],
   "translation": [
    0.07983393967151642,
    -0.07070272415876389,
    -0.009511470794677734
   ]
  },
  {
   "name": "RightToeBase",
   "rotation": [
    -2.9361721942677832e-08,
    -0.8881301879882812,
    0.26333901286125183,
    0.3766661286354065
   ],
   "scale": [
    1,
    0.9999998807907104,
    1
   ],
   "translation": [
    1.0244548320770264e-08,
    0.13810542225837708,
    -9.313225746154785e-09
   ]
  },
  {
   "children": [
    59
   ],
   "name": "RightFoot",
   "rotation": [
    -0.5104197263717651,
    -0.19393020868301392,
    0.27397674322128296,
    0.7917067408561707
   ],
   "scale": [
    0.9999999403953552,
    0.9999999403953552,
    1
   ],
   "translation": [
    2.3283064365386963e-08,
    0.379234254360199,
    5.587935447692871e-09
   ]
  },
  {
   "children": [
    60
   ],
   "name": "RightLeg",
   "rotation": [
    0.11882133036851883,
    0.03752931207418442,
    -0.05470103397965431,
    0.9906972050666809
   ],
   "scale": [
    1.0000001192092896,
    1,
    1
   ],
   "translation": [
    -2.9103830456733704e-09,
    0.36371564865112305,
    9.313225746154785e-10
   ]
  },
  {
   "children": [
    61
   ],
   "name": "RightUpLeg",
   "rotation": [
    0.9857833385467529,
    -0.09131445735692978,
    -0.07670433819293976,
    0.11836108565330505
   ],
   "scale": [
    1.0000007152557373,
    1,
    1.0000015497207642
   ],
   "translation": [
    -0.07933121174573898,
    -0.0707176998257637,
    -0.009596902877092361
   ]
  },
  {
   "children": [
    54,
    58,
    62
   ],
   "name": "Hips",
   "rotation": [
    0.08662513643503189,
    0,
    0,
    0.9962409734725952
   ],
   "translation": [
    0.004395688883960247,
    0.8967499732971191,
    -0.014808462001383305
   ]
  },
  {
   "mesh": 0,
   "name": "Low_Poly_Motorcyclist_3_rigged",
   "skin": 0
  },
  {
   "children": [
    64,
    63
   ],
   "name": "Armature"
  }
 ],
 "materials": [
  {
   "name": "tripo_material_87f9772a-8276-4f69-bfcb-62061079ddd5",
   "pbrMetallicRoughness": {
    "baseColorTexture": {
     "index": 0
    },
    "metallicFactor": 0,
    "roughnessFactor": 0.800000011920929
   }
  }
 ],
 "meshes": [
  {
   "name": "Low_Poly_Motorcyclist_3_rigged",
   "primitives": [
    {
     "attributes": {
      "POSITION": 0,
      "NORMAL": 1,
      "TEXCOORD_0": 2,
      "JOINTS_0": 3,
      "WEIGHTS_0": 4
     },
     "indices": 5,
     "material": 0
    }
   ]
  }
 ],
 "textures": [
  {
   "sampler": 0,
   "source": 0
  }
 ],
 "images": [
  {
   "mimeType": "image/png",
   "name": "Low_Poly_Motorcyclist_3_rigged",
   "uri": "Low_Poly_Motorcyclist_3_rigged_deps/Low_Poly_Motorcyclist_3_rigged.image-0.png"
  }
 ],
 "skins": [
  {
   "inverseBindMatrices": 6,
   "joints": [
    63,
    54,
    53,
    52,
    3,
    2,
    0,
    1,
    27,
    26,
    25,
    24,
    7,
    6,
    5,
    4,
    11,
    10,
    9,
    8,
    15,
    14,
    13,
    12,
    19,
    18,
    17,
    16,
    23,
    22,
    21,
    20,
    51,
    50,
    49,
    48,
    31,
    30,
    29,
    28,
    35,
    34,
    33,
    32,
    39,
    38,
    37,
    36,
    43,
    42,
    41,
    40,
    47,
    46,
    45,
    44,
    58,
    57,
    56,
    55,
    62,
    61,
    60,
    59
   ],
   "name": "Armature"
  }
 ],
 "accessors": [
  {
   "bufferView": 0,
   "componentType": 5126,
   "count": 3270,
   "max": [
    0.5585002303123474,
    1.6999999284744263,
    0.1748168021440506
   ],
   "min": [
    -0.5585002303123474,
    0,
    -0.1748168021440506
   ],
   "type": "VEC3"
  },
  {
   "bufferView": 1,
   "componentType": 5126,
   "count": 3270,
   "type": "VEC3"
  },
  {
   "bufferView": 2,
   "componentType": 5126,
   "count": 3270,
   "type": "VEC2"
  },
  {
   "bufferView": 3,
   "componentType": 5121,
   "count": 3270,
   "type": "VEC4"
  },
  {
   "bufferView": 4,
   "componentType": 5126,
   "count": 3270,
   "type": "VEC4"
  },
  {
   "bufferView": 5,
   "componentType": 5123,
   "count": 14406,
   "type": "SCALAR"
  },
  {
   "bufferView": 6,
   "componentType": 5126,
   "count": 64,
   "type": "MAT4"
  }
 ],
 "bufferViews": [
  {
   "buffer": 0,
   "byteLength": 39240,
   "byteOffset": 0,
   "target": 34962
  },
  {
   "buffer": 0,
   "byteLength": 39240,
   "byteOffset": 39240,
   "target": 34962
  },
  {
   "buffer": 0,
   "byteLength": 26160,
   "byteOffset": 78480,
   "target": 34962
  },
  {
   "buffer": 0,
   "byteLength": 13080,
   "byteOffset": 104640,
   "target": 34962
  },
  {
   "buffer": 0,
   "byteLength": 52320,
   "byteOffset": 117720,
   "target": 34962
  },
  {
   "buffer": 0,
   "byteLength": 28812,
   "byteOffset": 170040,
   "target": 34963
  },
  {
   "buffer": 0,
   "byteLength": 4096,
   "byteOffset": 198852
  }
 ],
 "samplers": [
  {
   "magFilter": 9729,
   "minFilter": 9987
  }
 ],
 "buffers": [
  {
   "byteLength": 202948,
   "uri": "Low_Poly_Motorcyclist_3_rigged_deps/Low_Poly_Motorcyclist_3_rigged.bin"
  }
 ]
}